%TF.GenerationSoftware,KiCad,Pcbnew,(5.1.10)-1*%
%TF.CreationDate,2021-05-18T00:23:08+09:00*%
%TF.ProjectId,intro21,696e7472-6f32-4312-9e6b-696361645f70,rev?*%
%TF.SameCoordinates,Original*%
%TF.FileFunction,Soldermask,Bot*%
%TF.FilePolarity,Negative*%
%FSLAX46Y46*%
G04 Gerber Fmt 4.6, Leading zero omitted, Abs format (unit mm)*
G04 Created by KiCad (PCBNEW (5.1.10)-1) date 2021-05-18 00:23:08*
%MOMM*%
%LPD*%
G01*
G04 APERTURE LIST*
%ADD10C,4.300000*%
%ADD11R,1.300000X0.950000*%
%ADD12C,1.397000*%
%ADD13R,1.397000X1.397000*%
%ADD14C,1.524000*%
%ADD15R,2.550000X2.500000*%
%ADD16C,1.750000*%
%ADD17C,3.000000*%
%ADD18C,3.987800*%
%ADD19C,3.048000*%
%ADD20C,2.000000*%
G04 APERTURE END LIST*
D10*
%TO.C,Ref\u002A\u002A*%
X92060300Y-66054300D03*
%TD*%
%TO.C,Ref\u002A\u002A*%
X92060300Y-142254300D03*
%TD*%
%TO.C,Ref\u002A\u002A*%
X206360300Y-142254300D03*
%TD*%
%TO.C,Ref\u002A\u002A*%
X206360650Y-66054900D03*
%TD*%
D11*
%TO.C,D21*%
X189085650Y-140349900D03*
D12*
X191120650Y-140349900D03*
D13*
X183500650Y-140349900D03*
D11*
X185535650Y-140349900D03*
%TD*%
%TO.C,D20*%
X160510650Y-140349900D03*
D12*
X162545650Y-140349900D03*
D13*
X154925650Y-140349900D03*
D11*
X156960650Y-140349900D03*
%TD*%
%TO.C,D19*%
X141460650Y-140349900D03*
D12*
X143495650Y-140349900D03*
D13*
X135875650Y-140349900D03*
D11*
X137910650Y-140349900D03*
%TD*%
%TO.C,D18*%
X122410650Y-140349900D03*
D12*
X124445650Y-140349900D03*
D13*
X116825650Y-140349900D03*
D11*
X118860650Y-140349900D03*
%TD*%
%TO.C,D17*%
X103360650Y-140349900D03*
D12*
X105395650Y-140349900D03*
D13*
X97775650Y-140349900D03*
D11*
X99810650Y-140349900D03*
%TD*%
%TO.C,D16*%
X198610650Y-121299900D03*
D12*
X200645650Y-121299900D03*
D13*
X193025650Y-121299900D03*
D11*
X195060650Y-121299900D03*
%TD*%
%TO.C,D15*%
X179560650Y-121299900D03*
D12*
X181595650Y-121299900D03*
D13*
X173975650Y-121299900D03*
D11*
X176010650Y-121299900D03*
%TD*%
%TO.C,D14*%
X160510650Y-121299900D03*
D12*
X162545650Y-121299900D03*
D13*
X154925650Y-121299900D03*
D11*
X156960650Y-121299900D03*
%TD*%
%TO.C,D13*%
X141460650Y-121299900D03*
D12*
X143495650Y-121299900D03*
D13*
X135875650Y-121299900D03*
D11*
X137910650Y-121299900D03*
%TD*%
%TO.C,D12*%
X122410650Y-121299900D03*
D12*
X124445650Y-121299900D03*
D13*
X116825650Y-121299900D03*
D11*
X118860650Y-121299900D03*
%TD*%
%TO.C,D11*%
X103360650Y-121299900D03*
D12*
X105395650Y-121299900D03*
D13*
X97775650Y-121299900D03*
D11*
X99810650Y-121299900D03*
%TD*%
%TO.C,D10*%
X179560650Y-102249900D03*
D12*
X181595650Y-102249900D03*
D13*
X173975650Y-102249900D03*
D11*
X176010650Y-102249900D03*
%TD*%
%TO.C,D9*%
X160510650Y-102249900D03*
D12*
X162545650Y-102249900D03*
D13*
X154925650Y-102249900D03*
D11*
X156960650Y-102249900D03*
%TD*%
%TO.C,D8*%
X141460650Y-102249900D03*
D12*
X143495650Y-102249900D03*
D13*
X135875650Y-102249900D03*
D11*
X137910650Y-102249900D03*
%TD*%
%TO.C,D7*%
X122410650Y-102249900D03*
D12*
X124445650Y-102249900D03*
D13*
X116825650Y-102249900D03*
D11*
X118860650Y-102249900D03*
%TD*%
%TO.C,D6*%
X103360650Y-102249900D03*
D12*
X105395650Y-102249900D03*
D13*
X97775650Y-102249900D03*
D11*
X99810650Y-102249900D03*
%TD*%
%TO.C,D5*%
X179560650Y-83199900D03*
D12*
X181595650Y-83199900D03*
D13*
X173975650Y-83199900D03*
D11*
X176010650Y-83199900D03*
%TD*%
%TO.C,D4*%
X160510650Y-83199900D03*
D12*
X162545650Y-83199900D03*
D13*
X154925650Y-83199900D03*
D11*
X156960650Y-83199900D03*
%TD*%
%TO.C,D3*%
X141460650Y-83199900D03*
D12*
X143495650Y-83199900D03*
D13*
X135875650Y-83199900D03*
D11*
X137910650Y-83199900D03*
%TD*%
%TO.C,D2*%
X122410650Y-83199900D03*
D12*
X124445650Y-83199900D03*
D13*
X116825650Y-83199900D03*
D11*
X118860650Y-83199900D03*
%TD*%
%TO.C,D1*%
X103360650Y-83199900D03*
D12*
X105395650Y-83199900D03*
D13*
X97775650Y-83199900D03*
D11*
X99810650Y-83199900D03*
%TD*%
D14*
%TO.C,U1*%
X189227050Y-68721900D03*
X189227050Y-71261900D03*
X189227050Y-73801900D03*
X189227050Y-76341900D03*
X189227050Y-78881900D03*
X189227050Y-81421900D03*
X189227050Y-83961900D03*
X189227050Y-86501900D03*
X189227050Y-89041900D03*
X189227050Y-91581900D03*
X189227050Y-94121900D03*
X189227050Y-96661900D03*
X204447050Y-96661900D03*
X204447050Y-94121900D03*
X204447050Y-91581900D03*
X204447050Y-89041900D03*
X204447050Y-86501900D03*
X204447050Y-83961900D03*
X204447050Y-81421900D03*
X204447050Y-78881900D03*
X204447050Y-76341900D03*
X204447050Y-73801900D03*
X204447050Y-71261900D03*
X204447050Y-68721900D03*
%TD*%
D15*
%TO.C,SW1*%
X107427650Y-70499900D03*
X94500650Y-73039900D03*
D16*
X106665650Y-75579900D03*
X96505650Y-75579900D03*
D17*
X97775650Y-73039900D03*
D18*
X101585650Y-75579900D03*
D17*
X104125650Y-70499900D03*
%TD*%
D15*
%TO.C,SW20*%
X164577650Y-127649900D03*
X151650650Y-130189900D03*
D16*
X163815650Y-132729900D03*
X153655650Y-132729900D03*
D17*
X154925650Y-130189900D03*
D18*
X158735650Y-132729900D03*
D17*
X161275650Y-127649900D03*
%TD*%
D15*
%TO.C,SW19*%
X145527650Y-127649900D03*
X132600650Y-130189900D03*
D16*
X144765650Y-132729900D03*
X134605650Y-132729900D03*
D17*
X135875650Y-130189900D03*
D18*
X139685650Y-132729900D03*
D17*
X142225650Y-127649900D03*
%TD*%
D15*
%TO.C,SW18*%
X126477650Y-127649900D03*
X113550650Y-130189900D03*
D16*
X125715650Y-132729900D03*
X115555650Y-132729900D03*
D17*
X116825650Y-130189900D03*
D18*
X120635650Y-132729900D03*
D17*
X123175650Y-127649900D03*
%TD*%
D15*
%TO.C,SW17*%
X107427650Y-127649900D03*
X94500650Y-130189900D03*
D16*
X106665650Y-132729900D03*
X96505650Y-132729900D03*
D17*
X97775650Y-130189900D03*
D18*
X101585650Y-132729900D03*
D17*
X104125650Y-127649900D03*
%TD*%
D15*
%TO.C,SW16*%
X202677650Y-108599900D03*
X189750650Y-111139900D03*
D16*
X201915650Y-113679900D03*
X191755650Y-113679900D03*
D17*
X193025650Y-111139900D03*
D18*
X196835650Y-113679900D03*
D17*
X199375650Y-108599900D03*
%TD*%
D15*
%TO.C,SW15*%
X183627650Y-108599900D03*
X170700650Y-111139900D03*
D16*
X182865650Y-113679900D03*
X172705650Y-113679900D03*
D17*
X173975650Y-111139900D03*
D18*
X177785650Y-113679900D03*
D17*
X180325650Y-108599900D03*
%TD*%
D15*
%TO.C,SW14*%
X164577650Y-108599900D03*
X151650650Y-111139900D03*
D16*
X163815650Y-113679900D03*
X153655650Y-113679900D03*
D17*
X154925650Y-111139900D03*
D18*
X158735650Y-113679900D03*
D17*
X161275650Y-108599900D03*
%TD*%
D15*
%TO.C,SW13*%
X145527650Y-108599900D03*
X132600650Y-111139900D03*
D16*
X144765650Y-113679900D03*
X134605650Y-113679900D03*
D17*
X135875650Y-111139900D03*
D18*
X139685650Y-113679900D03*
D17*
X142225650Y-108599900D03*
%TD*%
D15*
%TO.C,SW12*%
X126477650Y-108599900D03*
X113550650Y-111139900D03*
D16*
X125715650Y-113679900D03*
X115555650Y-113679900D03*
D17*
X116825650Y-111139900D03*
D18*
X120635650Y-113679900D03*
D17*
X123175650Y-108599900D03*
%TD*%
D15*
%TO.C,SW11*%
X107427650Y-108599900D03*
X94500650Y-111139900D03*
D16*
X106665650Y-113679900D03*
X96505650Y-113679900D03*
D17*
X97775650Y-111139900D03*
D18*
X101585650Y-113679900D03*
D17*
X104125650Y-108599900D03*
%TD*%
D15*
%TO.C,SW10*%
X183627650Y-89549900D03*
X170700650Y-92089900D03*
D16*
X182865650Y-94629900D03*
X172705650Y-94629900D03*
D17*
X173975650Y-92089900D03*
D18*
X177785650Y-94629900D03*
D17*
X180325650Y-89549900D03*
%TD*%
D15*
%TO.C,SW9*%
X164577650Y-89549900D03*
X151650650Y-92089900D03*
D16*
X163815650Y-94629900D03*
X153655650Y-94629900D03*
D17*
X154925650Y-92089900D03*
D18*
X158735650Y-94629900D03*
D17*
X161275650Y-89549900D03*
%TD*%
D15*
%TO.C,SW8*%
X145527650Y-89549900D03*
X132600650Y-92089900D03*
D16*
X144765650Y-94629900D03*
X134605650Y-94629900D03*
D17*
X135875650Y-92089900D03*
D18*
X139685650Y-94629900D03*
D17*
X142225650Y-89549900D03*
%TD*%
D15*
%TO.C,SW7*%
X126477650Y-89549900D03*
X113550650Y-92089900D03*
D16*
X125715650Y-94629900D03*
X115555650Y-94629900D03*
D17*
X116825650Y-92089900D03*
D18*
X120635650Y-94629900D03*
D17*
X123175650Y-89549900D03*
%TD*%
D15*
%TO.C,SW6*%
X107427650Y-89549900D03*
X94500650Y-92089900D03*
D16*
X106665650Y-94629900D03*
X96505650Y-94629900D03*
D17*
X97775650Y-92089900D03*
D18*
X101585650Y-94629900D03*
D17*
X104125650Y-89549900D03*
%TD*%
D15*
%TO.C,SW5*%
X183627650Y-70499900D03*
X170700650Y-73039900D03*
D16*
X182865650Y-75579900D03*
X172705650Y-75579900D03*
D17*
X173975650Y-73039900D03*
D18*
X177785650Y-75579900D03*
D17*
X180325650Y-70499900D03*
%TD*%
D15*
%TO.C,SW4*%
X164577650Y-70499900D03*
X151650650Y-73039900D03*
D16*
X163815650Y-75579900D03*
X153655650Y-75579900D03*
D17*
X154925650Y-73039900D03*
D18*
X158735650Y-75579900D03*
D17*
X161275650Y-70499900D03*
%TD*%
D15*
%TO.C,SW3*%
X145527650Y-70499900D03*
X132600650Y-73039900D03*
D16*
X144765650Y-75579900D03*
X134605650Y-75579900D03*
D17*
X135875650Y-73039900D03*
D18*
X139685650Y-75579900D03*
D17*
X142225650Y-70499900D03*
%TD*%
D15*
%TO.C,SW2*%
X126477650Y-70499900D03*
X113550650Y-73039900D03*
D16*
X125715650Y-75579900D03*
X115555650Y-75579900D03*
D17*
X116825650Y-73039900D03*
D18*
X120635650Y-75579900D03*
D17*
X123175650Y-70499900D03*
%TD*%
D18*
%TO.C,SW21*%
X175372650Y-140984900D03*
X199248650Y-140984900D03*
D19*
X175372650Y-125744900D03*
X199248650Y-125744900D03*
D15*
X193152650Y-127649900D03*
X180225650Y-130189900D03*
D16*
X192390650Y-132729900D03*
X182230650Y-132729900D03*
D17*
X183500650Y-130189900D03*
D18*
X187310650Y-132729900D03*
D17*
X189850650Y-127649900D03*
%TD*%
D20*
%TO.C,RSW1*%
X193585650Y-102249900D03*
X200085650Y-102249900D03*
%TD*%
M02*
