%TF.GenerationSoftware,KiCad,Pcbnew,(5.1.10)-1*%
%TF.CreationDate,2021-05-18T00:23:08+09:00*%
%TF.ProjectId,intro21,696e7472-6f32-4312-9e6b-696361645f70,rev?*%
%TF.SameCoordinates,Original*%
%TF.FileFunction,Legend,Top*%
%TF.FilePolarity,Positive*%
%FSLAX46Y46*%
G04 Gerber Fmt 4.6, Leading zero omitted, Abs format (unit mm)*
G04 Created by KiCad (PCBNEW (5.1.10)-1) date 2021-05-18 00:23:08*
%MOMM*%
%LPD*%
G01*
G04 APERTURE LIST*
%ADD10C,0.010000*%
%ADD11C,0.150000*%
%ADD12C,0.125000*%
%ADD13C,0.120000*%
G04 APERTURE END LIST*
D10*
%TO.C,G\u002A\u002A\u002A*%
G36*
X179542484Y-93843981D02*
G01*
X180138886Y-93858018D01*
X180595062Y-93873930D01*
X180940116Y-93894777D01*
X181203151Y-93923618D01*
X181413270Y-93963513D01*
X181599577Y-94017522D01*
X181762359Y-94077361D01*
X182305662Y-94373693D01*
X182789072Y-94798300D01*
X183172546Y-95311288D01*
X183339463Y-95648524D01*
X183542984Y-96153900D01*
X183542984Y-102588567D01*
X183542852Y-103845102D01*
X183541951Y-104944383D01*
X183539522Y-105898490D01*
X183534805Y-106719501D01*
X183527040Y-107419497D01*
X183515467Y-108010558D01*
X183499329Y-108504761D01*
X183477864Y-108914187D01*
X183450314Y-109250916D01*
X183415918Y-109527026D01*
X183373918Y-109754598D01*
X183323555Y-109945710D01*
X183264067Y-110112442D01*
X183194697Y-110266874D01*
X183114685Y-110421085D01*
X183042239Y-110552886D01*
X182891728Y-110793360D01*
X182659707Y-111126184D01*
X182373416Y-111513915D01*
X182060094Y-111919107D01*
X181930434Y-112081229D01*
X181087650Y-113123729D01*
X179288484Y-113126648D01*
X178757149Y-113125475D01*
X178288032Y-113120544D01*
X177905720Y-113112437D01*
X177634804Y-113101735D01*
X177499870Y-113089019D01*
X177489317Y-113084114D01*
X177541646Y-113008089D01*
X177686764Y-112825511D01*
X177906868Y-112558057D01*
X178184154Y-112227405D01*
X178445444Y-111919948D01*
X178959913Y-111315300D01*
X179375554Y-110819760D01*
X179705914Y-110415763D01*
X179964541Y-110085747D01*
X180164982Y-109812148D01*
X180320785Y-109577404D01*
X180445498Y-109363951D01*
X180506128Y-109248512D01*
X180748984Y-108769234D01*
X180772435Y-102971452D01*
X180776575Y-101755746D01*
X180778410Y-100700262D01*
X180777821Y-99795902D01*
X180774692Y-99033569D01*
X180768904Y-98404166D01*
X180760341Y-97898595D01*
X180748884Y-97507759D01*
X180734416Y-97222561D01*
X180716819Y-97033903D01*
X180695977Y-96932688D01*
X180694350Y-96928538D01*
X180589234Y-96751898D01*
X180425922Y-96622574D01*
X180180931Y-96534195D01*
X179830778Y-96480389D01*
X179351980Y-96454787D01*
X178931370Y-96450234D01*
X177827984Y-96450234D01*
X177827984Y-93808181D01*
X179542484Y-93843981D01*
G37*
X179542484Y-93843981D02*
X180138886Y-93858018D01*
X180595062Y-93873930D01*
X180940116Y-93894777D01*
X181203151Y-93923618D01*
X181413270Y-93963513D01*
X181599577Y-94017522D01*
X181762359Y-94077361D01*
X182305662Y-94373693D01*
X182789072Y-94798300D01*
X183172546Y-95311288D01*
X183339463Y-95648524D01*
X183542984Y-96153900D01*
X183542984Y-102588567D01*
X183542852Y-103845102D01*
X183541951Y-104944383D01*
X183539522Y-105898490D01*
X183534805Y-106719501D01*
X183527040Y-107419497D01*
X183515467Y-108010558D01*
X183499329Y-108504761D01*
X183477864Y-108914187D01*
X183450314Y-109250916D01*
X183415918Y-109527026D01*
X183373918Y-109754598D01*
X183323555Y-109945710D01*
X183264067Y-110112442D01*
X183194697Y-110266874D01*
X183114685Y-110421085D01*
X183042239Y-110552886D01*
X182891728Y-110793360D01*
X182659707Y-111126184D01*
X182373416Y-111513915D01*
X182060094Y-111919107D01*
X181930434Y-112081229D01*
X181087650Y-113123729D01*
X179288484Y-113126648D01*
X178757149Y-113125475D01*
X178288032Y-113120544D01*
X177905720Y-113112437D01*
X177634804Y-113101735D01*
X177499870Y-113089019D01*
X177489317Y-113084114D01*
X177541646Y-113008089D01*
X177686764Y-112825511D01*
X177906868Y-112558057D01*
X178184154Y-112227405D01*
X178445444Y-111919948D01*
X178959913Y-111315300D01*
X179375554Y-110819760D01*
X179705914Y-110415763D01*
X179964541Y-110085747D01*
X180164982Y-109812148D01*
X180320785Y-109577404D01*
X180445498Y-109363951D01*
X180506128Y-109248512D01*
X180748984Y-108769234D01*
X180772435Y-102971452D01*
X180776575Y-101755746D01*
X180778410Y-100700262D01*
X180777821Y-99795902D01*
X180774692Y-99033569D01*
X180768904Y-98404166D01*
X180760341Y-97898595D01*
X180748884Y-97507759D01*
X180734416Y-97222561D01*
X180716819Y-97033903D01*
X180695977Y-96932688D01*
X180694350Y-96928538D01*
X180589234Y-96751898D01*
X180425922Y-96622574D01*
X180180931Y-96534195D01*
X179830778Y-96480389D01*
X179351980Y-96454787D01*
X178931370Y-96450234D01*
X177827984Y-96450234D01*
X177827984Y-93808181D01*
X179542484Y-93843981D01*
G36*
X170419650Y-93847432D02*
G01*
X171215372Y-93856575D01*
X171860531Y-93866632D01*
X172373898Y-93878618D01*
X172774244Y-93893551D01*
X173080338Y-93912449D01*
X173310951Y-93936329D01*
X173484855Y-93966207D01*
X173620818Y-94003100D01*
X173679317Y-94024063D01*
X174315402Y-94347332D01*
X174822367Y-94778763D01*
X175205894Y-95324039D01*
X175388465Y-95733393D01*
X175453696Y-95928562D01*
X175502819Y-96128763D01*
X175538702Y-96363474D01*
X175564212Y-96662173D01*
X175582213Y-97054337D01*
X175595574Y-97569444D01*
X175602255Y-97931900D01*
X175630820Y-99625234D01*
X171816575Y-104154900D01*
X168002329Y-108684567D01*
X168051194Y-109107900D01*
X168170613Y-109626119D01*
X168391412Y-110028589D01*
X168689077Y-110290375D01*
X168810252Y-110350636D01*
X168956589Y-110395947D01*
X169155068Y-110429218D01*
X169432671Y-110453359D01*
X169816376Y-110471279D01*
X170333165Y-110485888D01*
X170546278Y-110490667D01*
X172118568Y-110524486D01*
X173924492Y-108376860D01*
X174359095Y-107861807D01*
X174760593Y-107389398D01*
X175115677Y-106975029D01*
X175411038Y-106634095D01*
X175633365Y-106381992D01*
X175769349Y-106234116D01*
X175805533Y-106201011D01*
X175827004Y-106273773D01*
X175845885Y-106495210D01*
X175861415Y-106844670D01*
X175872831Y-107301506D01*
X175879373Y-107845068D01*
X175880650Y-108237729D01*
X175880122Y-108882557D01*
X175877313Y-109380386D01*
X175870392Y-109753548D01*
X175857523Y-110024378D01*
X175836874Y-110215209D01*
X175806609Y-110348374D01*
X175764897Y-110446206D01*
X175709902Y-110531039D01*
X175690150Y-110557815D01*
X175573808Y-110706164D01*
X175370865Y-110957266D01*
X175103447Y-111284054D01*
X174793680Y-111659463D01*
X174534698Y-111971264D01*
X173569745Y-113129567D01*
X170936364Y-113122366D01*
X170021482Y-113116407D01*
X169270264Y-113103854D01*
X168677159Y-113084502D01*
X168236620Y-113058146D01*
X167943096Y-113024582D01*
X167865712Y-113009118D01*
X167236046Y-112793998D01*
X166655059Y-112477368D01*
X166175958Y-112089397D01*
X166097760Y-112006689D01*
X165776101Y-111572375D01*
X165532488Y-111062407D01*
X165361740Y-110456993D01*
X165258677Y-109736339D01*
X165218117Y-108880651D01*
X165217140Y-108642234D01*
X165220350Y-107668567D01*
X172832650Y-98648383D01*
X172832650Y-97927589D01*
X172811100Y-97400913D01*
X172741100Y-97017015D01*
X172614631Y-96754236D01*
X172423671Y-96590916D01*
X172321123Y-96546358D01*
X172127397Y-96510258D01*
X171787739Y-96481562D01*
X171325437Y-96461495D01*
X170763780Y-96451286D01*
X170498095Y-96450234D01*
X168950808Y-96450234D01*
X168478729Y-97018975D01*
X168006650Y-97587717D01*
X168006650Y-100090900D01*
X165212650Y-100090900D01*
X165214332Y-98334067D01*
X165216013Y-96577234D01*
X166378498Y-95197524D01*
X167540984Y-93817815D01*
X170419650Y-93847432D01*
G37*
X170419650Y-93847432D02*
X171215372Y-93856575D01*
X171860531Y-93866632D01*
X172373898Y-93878618D01*
X172774244Y-93893551D01*
X173080338Y-93912449D01*
X173310951Y-93936329D01*
X173484855Y-93966207D01*
X173620818Y-94003100D01*
X173679317Y-94024063D01*
X174315402Y-94347332D01*
X174822367Y-94778763D01*
X175205894Y-95324039D01*
X175388465Y-95733393D01*
X175453696Y-95928562D01*
X175502819Y-96128763D01*
X175538702Y-96363474D01*
X175564212Y-96662173D01*
X175582213Y-97054337D01*
X175595574Y-97569444D01*
X175602255Y-97931900D01*
X175630820Y-99625234D01*
X171816575Y-104154900D01*
X168002329Y-108684567D01*
X168051194Y-109107900D01*
X168170613Y-109626119D01*
X168391412Y-110028589D01*
X168689077Y-110290375D01*
X168810252Y-110350636D01*
X168956589Y-110395947D01*
X169155068Y-110429218D01*
X169432671Y-110453359D01*
X169816376Y-110471279D01*
X170333165Y-110485888D01*
X170546278Y-110490667D01*
X172118568Y-110524486D01*
X173924492Y-108376860D01*
X174359095Y-107861807D01*
X174760593Y-107389398D01*
X175115677Y-106975029D01*
X175411038Y-106634095D01*
X175633365Y-106381992D01*
X175769349Y-106234116D01*
X175805533Y-106201011D01*
X175827004Y-106273773D01*
X175845885Y-106495210D01*
X175861415Y-106844670D01*
X175872831Y-107301506D01*
X175879373Y-107845068D01*
X175880650Y-108237729D01*
X175880122Y-108882557D01*
X175877313Y-109380386D01*
X175870392Y-109753548D01*
X175857523Y-110024378D01*
X175836874Y-110215209D01*
X175806609Y-110348374D01*
X175764897Y-110446206D01*
X175709902Y-110531039D01*
X175690150Y-110557815D01*
X175573808Y-110706164D01*
X175370865Y-110957266D01*
X175103447Y-111284054D01*
X174793680Y-111659463D01*
X174534698Y-111971264D01*
X173569745Y-113129567D01*
X170936364Y-113122366D01*
X170021482Y-113116407D01*
X169270264Y-113103854D01*
X168677159Y-113084502D01*
X168236620Y-113058146D01*
X167943096Y-113024582D01*
X167865712Y-113009118D01*
X167236046Y-112793998D01*
X166655059Y-112477368D01*
X166175958Y-112089397D01*
X166097760Y-112006689D01*
X165776101Y-111572375D01*
X165532488Y-111062407D01*
X165361740Y-110456993D01*
X165258677Y-109736339D01*
X165218117Y-108880651D01*
X165217140Y-108642234D01*
X165220350Y-107668567D01*
X172832650Y-98648383D01*
X172832650Y-97927589D01*
X172811100Y-97400913D01*
X172741100Y-97017015D01*
X172614631Y-96754236D01*
X172423671Y-96590916D01*
X172321123Y-96546358D01*
X172127397Y-96510258D01*
X171787739Y-96481562D01*
X171325437Y-96461495D01*
X170763780Y-96451286D01*
X170498095Y-96450234D01*
X168950808Y-96450234D01*
X168478729Y-97018975D01*
X168006650Y-97587717D01*
X168006650Y-100090900D01*
X165212650Y-100090900D01*
X165214332Y-98334067D01*
X165216013Y-96577234D01*
X166378498Y-95197524D01*
X167540984Y-93817815D01*
X170419650Y-93847432D01*
G36*
X157801167Y-98668979D02*
G01*
X158567718Y-98677026D01*
X159184985Y-98685341D01*
X159673010Y-98695247D01*
X160051841Y-98708070D01*
X160341520Y-98725136D01*
X160562094Y-98747771D01*
X160733606Y-98777299D01*
X160876102Y-98815047D01*
X161009626Y-98862339D01*
X161066727Y-98884914D01*
X161573833Y-99172298D01*
X162022751Y-99587074D01*
X162371170Y-100088047D01*
X162435766Y-100217900D01*
X162630317Y-100641234D01*
X162677835Y-110592214D01*
X161602019Y-111860890D01*
X160526203Y-113129567D01*
X157069598Y-113129567D01*
X157302338Y-112854400D01*
X157423736Y-112710280D01*
X157634758Y-112459131D01*
X157916290Y-112123728D01*
X158249217Y-111726847D01*
X158614424Y-111291265D01*
X158791531Y-111079954D01*
X160047984Y-109580674D01*
X160047984Y-105678249D01*
X160047522Y-104713035D01*
X160045205Y-103903081D01*
X160039631Y-103234317D01*
X160029400Y-102692671D01*
X160013112Y-102264072D01*
X159989367Y-101934447D01*
X159956763Y-101689725D01*
X159913901Y-101515835D01*
X159859381Y-101398705D01*
X159791801Y-101324263D01*
X159709761Y-101278439D01*
X159611862Y-101247159D01*
X159606874Y-101245818D01*
X159461868Y-101229006D01*
X159178800Y-101214331D01*
X158788937Y-101202752D01*
X158323547Y-101195228D01*
X157876194Y-101192723D01*
X156339405Y-101191567D01*
X155907694Y-101689897D01*
X155475984Y-102188227D01*
X155476456Y-105817397D01*
X155478534Y-106677051D01*
X155484317Y-107462303D01*
X155493475Y-108157749D01*
X155505678Y-108747987D01*
X155520597Y-109217615D01*
X155537901Y-109551231D01*
X155557262Y-109733432D01*
X155560587Y-109747713D01*
X155679651Y-110006856D01*
X155865681Y-110258899D01*
X155904089Y-110298046D01*
X156018660Y-110402021D01*
X156129316Y-110473073D01*
X156270921Y-110518583D01*
X156478339Y-110545933D01*
X156786435Y-110562503D01*
X157213432Y-110575230D01*
X158262932Y-110603227D01*
X157197528Y-111866397D01*
X156815039Y-112318996D01*
X156519276Y-112656797D01*
X156286167Y-112893051D01*
X156091638Y-113041009D01*
X155911613Y-113113923D01*
X155722021Y-113125045D01*
X155498786Y-113087626D01*
X155217834Y-113014919D01*
X155146176Y-112995580D01*
X154452566Y-112731443D01*
X153874700Y-112344243D01*
X153414942Y-111836181D01*
X153075656Y-111209458D01*
X152996439Y-110994815D01*
X152957596Y-110872283D01*
X152924688Y-110746427D01*
X152897100Y-110602333D01*
X152874219Y-110425086D01*
X152855429Y-110199774D01*
X152840116Y-109911482D01*
X152827666Y-109545297D01*
X152817464Y-109086304D01*
X152808895Y-108519589D01*
X152801345Y-107830239D01*
X152794200Y-107003340D01*
X152786844Y-106023978D01*
X152785833Y-105883585D01*
X152752933Y-101304603D01*
X155004017Y-98641411D01*
X157801167Y-98668979D01*
G37*
X157801167Y-98668979D02*
X158567718Y-98677026D01*
X159184985Y-98685341D01*
X159673010Y-98695247D01*
X160051841Y-98708070D01*
X160341520Y-98725136D01*
X160562094Y-98747771D01*
X160733606Y-98777299D01*
X160876102Y-98815047D01*
X161009626Y-98862339D01*
X161066727Y-98884914D01*
X161573833Y-99172298D01*
X162022751Y-99587074D01*
X162371170Y-100088047D01*
X162435766Y-100217900D01*
X162630317Y-100641234D01*
X162677835Y-110592214D01*
X161602019Y-111860890D01*
X160526203Y-113129567D01*
X157069598Y-113129567D01*
X157302338Y-112854400D01*
X157423736Y-112710280D01*
X157634758Y-112459131D01*
X157916290Y-112123728D01*
X158249217Y-111726847D01*
X158614424Y-111291265D01*
X158791531Y-111079954D01*
X160047984Y-109580674D01*
X160047984Y-105678249D01*
X160047522Y-104713035D01*
X160045205Y-103903081D01*
X160039631Y-103234317D01*
X160029400Y-102692671D01*
X160013112Y-102264072D01*
X159989367Y-101934447D01*
X159956763Y-101689725D01*
X159913901Y-101515835D01*
X159859381Y-101398705D01*
X159791801Y-101324263D01*
X159709761Y-101278439D01*
X159611862Y-101247159D01*
X159606874Y-101245818D01*
X159461868Y-101229006D01*
X159178800Y-101214331D01*
X158788937Y-101202752D01*
X158323547Y-101195228D01*
X157876194Y-101192723D01*
X156339405Y-101191567D01*
X155907694Y-101689897D01*
X155475984Y-102188227D01*
X155476456Y-105817397D01*
X155478534Y-106677051D01*
X155484317Y-107462303D01*
X155493475Y-108157749D01*
X155505678Y-108747987D01*
X155520597Y-109217615D01*
X155537901Y-109551231D01*
X155557262Y-109733432D01*
X155560587Y-109747713D01*
X155679651Y-110006856D01*
X155865681Y-110258899D01*
X155904089Y-110298046D01*
X156018660Y-110402021D01*
X156129316Y-110473073D01*
X156270921Y-110518583D01*
X156478339Y-110545933D01*
X156786435Y-110562503D01*
X157213432Y-110575230D01*
X158262932Y-110603227D01*
X157197528Y-111866397D01*
X156815039Y-112318996D01*
X156519276Y-112656797D01*
X156286167Y-112893051D01*
X156091638Y-113041009D01*
X155911613Y-113113923D01*
X155722021Y-113125045D01*
X155498786Y-113087626D01*
X155217834Y-113014919D01*
X155146176Y-112995580D01*
X154452566Y-112731443D01*
X153874700Y-112344243D01*
X153414942Y-111836181D01*
X153075656Y-111209458D01*
X152996439Y-110994815D01*
X152957596Y-110872283D01*
X152924688Y-110746427D01*
X152897100Y-110602333D01*
X152874219Y-110425086D01*
X152855429Y-110199774D01*
X152840116Y-109911482D01*
X152827666Y-109545297D01*
X152817464Y-109086304D01*
X152808895Y-108519589D01*
X152801345Y-107830239D01*
X152794200Y-107003340D01*
X152786844Y-106023978D01*
X152785833Y-105883585D01*
X152752933Y-101304603D01*
X155004017Y-98641411D01*
X157801167Y-98668979D01*
G36*
X145442984Y-98676333D02*
G01*
X146207158Y-98682936D01*
X146821667Y-98689928D01*
X147306177Y-98698611D01*
X147680353Y-98710287D01*
X147963861Y-98726260D01*
X148176367Y-98747831D01*
X148337536Y-98776303D01*
X148467034Y-98812978D01*
X148584527Y-98859158D01*
X148650449Y-98888756D01*
X149205609Y-99203407D01*
X149621942Y-99581425D01*
X149914978Y-100025662D01*
X150066629Y-100377070D01*
X150177193Y-100765192D01*
X150251471Y-101221381D01*
X150294267Y-101776991D01*
X150310384Y-102463377D01*
X150310826Y-102609734D01*
X150311317Y-103731567D01*
X147615440Y-103731567D01*
X147587545Y-102633682D01*
X147572149Y-102165196D01*
X147550957Y-101836108D01*
X147519682Y-101616487D01*
X147474038Y-101476404D01*
X147409736Y-101385930D01*
X147408658Y-101384849D01*
X147338087Y-101331554D01*
X147231734Y-101291457D01*
X147065552Y-101262202D01*
X146815495Y-101241435D01*
X146457515Y-101226799D01*
X145967565Y-101215939D01*
X145630658Y-101210687D01*
X144003650Y-101187473D01*
X143560826Y-101718687D01*
X143118002Y-102249900D01*
X143117831Y-104959234D01*
X143120311Y-105661612D01*
X143127415Y-106345758D01*
X143138501Y-106983519D01*
X143152926Y-107546744D01*
X143170051Y-108007279D01*
X143189233Y-108336971D01*
X143196664Y-108419594D01*
X143233333Y-108715134D01*
X143284147Y-108975800D01*
X143361246Y-109222099D01*
X143476772Y-109474542D01*
X143642867Y-109753640D01*
X143871671Y-110079901D01*
X144175326Y-110473835D01*
X144565973Y-110955953D01*
X145028520Y-111514081D01*
X145382820Y-111940171D01*
X145700848Y-112324226D01*
X145966481Y-112646645D01*
X146163595Y-112887829D01*
X146276068Y-113028177D01*
X146295325Y-113054081D01*
X146229815Y-113077948D01*
X146015918Y-113098255D01*
X145674560Y-113114071D01*
X145226666Y-113124465D01*
X144693164Y-113128505D01*
X144622480Y-113128517D01*
X142902984Y-113127467D01*
X142098650Y-112155549D01*
X141789579Y-111772975D01*
X141499259Y-111397185D01*
X141255425Y-111065206D01*
X141085813Y-110814067D01*
X141054266Y-110761288D01*
X140944172Y-110564005D01*
X140851330Y-110381077D01*
X140774124Y-110196418D01*
X140710939Y-109993946D01*
X140660157Y-109757574D01*
X140620165Y-109471220D01*
X140589344Y-109118798D01*
X140566081Y-108684225D01*
X140548758Y-108151415D01*
X140535761Y-107504285D01*
X140525472Y-106726750D01*
X140516277Y-105802725D01*
X140512352Y-105367081D01*
X140476023Y-101287595D01*
X141562503Y-99970658D01*
X142648984Y-98653721D01*
X145442984Y-98676333D01*
G37*
X145442984Y-98676333D02*
X146207158Y-98682936D01*
X146821667Y-98689928D01*
X147306177Y-98698611D01*
X147680353Y-98710287D01*
X147963861Y-98726260D01*
X148176367Y-98747831D01*
X148337536Y-98776303D01*
X148467034Y-98812978D01*
X148584527Y-98859158D01*
X148650449Y-98888756D01*
X149205609Y-99203407D01*
X149621942Y-99581425D01*
X149914978Y-100025662D01*
X150066629Y-100377070D01*
X150177193Y-100765192D01*
X150251471Y-101221381D01*
X150294267Y-101776991D01*
X150310384Y-102463377D01*
X150310826Y-102609734D01*
X150311317Y-103731567D01*
X147615440Y-103731567D01*
X147587545Y-102633682D01*
X147572149Y-102165196D01*
X147550957Y-101836108D01*
X147519682Y-101616487D01*
X147474038Y-101476404D01*
X147409736Y-101385930D01*
X147408658Y-101384849D01*
X147338087Y-101331554D01*
X147231734Y-101291457D01*
X147065552Y-101262202D01*
X146815495Y-101241435D01*
X146457515Y-101226799D01*
X145967565Y-101215939D01*
X145630658Y-101210687D01*
X144003650Y-101187473D01*
X143560826Y-101718687D01*
X143118002Y-102249900D01*
X143117831Y-104959234D01*
X143120311Y-105661612D01*
X143127415Y-106345758D01*
X143138501Y-106983519D01*
X143152926Y-107546744D01*
X143170051Y-108007279D01*
X143189233Y-108336971D01*
X143196664Y-108419594D01*
X143233333Y-108715134D01*
X143284147Y-108975800D01*
X143361246Y-109222099D01*
X143476772Y-109474542D01*
X143642867Y-109753640D01*
X143871671Y-110079901D01*
X144175326Y-110473835D01*
X144565973Y-110955953D01*
X145028520Y-111514081D01*
X145382820Y-111940171D01*
X145700848Y-112324226D01*
X145966481Y-112646645D01*
X146163595Y-112887829D01*
X146276068Y-113028177D01*
X146295325Y-113054081D01*
X146229815Y-113077948D01*
X146015918Y-113098255D01*
X145674560Y-113114071D01*
X145226666Y-113124465D01*
X144693164Y-113128505D01*
X144622480Y-113128517D01*
X142902984Y-113127467D01*
X142098650Y-112155549D01*
X141789579Y-111772975D01*
X141499259Y-111397185D01*
X141255425Y-111065206D01*
X141085813Y-110814067D01*
X141054266Y-110761288D01*
X140944172Y-110564005D01*
X140851330Y-110381077D01*
X140774124Y-110196418D01*
X140710939Y-109993946D01*
X140660157Y-109757574D01*
X140620165Y-109471220D01*
X140589344Y-109118798D01*
X140566081Y-108684225D01*
X140548758Y-108151415D01*
X140535761Y-107504285D01*
X140525472Y-106726750D01*
X140516277Y-105802725D01*
X140512352Y-105367081D01*
X140476023Y-101287595D01*
X141562503Y-99970658D01*
X142648984Y-98653721D01*
X145442984Y-98676333D01*
G36*
X135319106Y-93827698D02*
G01*
X135756235Y-93833630D01*
X136103710Y-93842674D01*
X136335518Y-93854140D01*
X136425648Y-93867337D01*
X136425984Y-93868211D01*
X136374820Y-93944484D01*
X136233250Y-94128395D01*
X136019155Y-94397401D01*
X135750415Y-94728958D01*
X135536185Y-94990044D01*
X135105515Y-95522160D01*
X134776094Y-95958828D01*
X134533947Y-96328686D01*
X134365099Y-96660369D01*
X134255574Y-96982517D01*
X134191397Y-97323766D01*
X134158593Y-97712753D01*
X134153559Y-97823245D01*
X134120289Y-98651567D01*
X138203984Y-98651567D01*
X138203984Y-101191567D01*
X134133521Y-101191567D01*
X134182317Y-108938567D01*
X134406093Y-109404234D01*
X134503927Y-109591974D01*
X134627630Y-109795190D01*
X134789913Y-110030339D01*
X135003486Y-110313880D01*
X135281059Y-110662269D01*
X135635342Y-111091967D01*
X136079046Y-111619430D01*
X136493356Y-112106923D01*
X137365062Y-113129567D01*
X133899239Y-113129567D01*
X133151778Y-112240848D01*
X132840895Y-111860152D01*
X132539446Y-111471572D01*
X132280902Y-111119446D01*
X132098737Y-110848110D01*
X132092100Y-110837237D01*
X131987933Y-110663659D01*
X131897126Y-110501277D01*
X131818768Y-110337711D01*
X131751949Y-110160580D01*
X131695758Y-109957502D01*
X131649284Y-109716097D01*
X131611615Y-109423984D01*
X131581843Y-109068781D01*
X131559054Y-108638108D01*
X131542340Y-108119584D01*
X131530789Y-107500827D01*
X131523490Y-106769457D01*
X131519532Y-105913094D01*
X131518005Y-104919354D01*
X131517998Y-103775859D01*
X131518333Y-103037520D01*
X131519083Y-101823578D01*
X131520555Y-100766433D01*
X131523496Y-99853552D01*
X131528654Y-99072397D01*
X131536776Y-98410434D01*
X131548609Y-97855127D01*
X131564901Y-97393942D01*
X131586400Y-97014342D01*
X131613853Y-96703792D01*
X131648008Y-96449757D01*
X131689611Y-96239701D01*
X131739411Y-96061089D01*
X131798155Y-95901386D01*
X131866591Y-95748055D01*
X131945465Y-95588563D01*
X131964790Y-95550422D01*
X132120170Y-95283883D01*
X132345169Y-94946457D01*
X132600103Y-94596587D01*
X132697848Y-94470922D01*
X133210688Y-93825567D01*
X134818336Y-93825567D01*
X135319106Y-93827698D01*
G37*
X135319106Y-93827698D02*
X135756235Y-93833630D01*
X136103710Y-93842674D01*
X136335518Y-93854140D01*
X136425648Y-93867337D01*
X136425984Y-93868211D01*
X136374820Y-93944484D01*
X136233250Y-94128395D01*
X136019155Y-94397401D01*
X135750415Y-94728958D01*
X135536185Y-94990044D01*
X135105515Y-95522160D01*
X134776094Y-95958828D01*
X134533947Y-96328686D01*
X134365099Y-96660369D01*
X134255574Y-96982517D01*
X134191397Y-97323766D01*
X134158593Y-97712753D01*
X134153559Y-97823245D01*
X134120289Y-98651567D01*
X138203984Y-98651567D01*
X138203984Y-101191567D01*
X134133521Y-101191567D01*
X134182317Y-108938567D01*
X134406093Y-109404234D01*
X134503927Y-109591974D01*
X134627630Y-109795190D01*
X134789913Y-110030339D01*
X135003486Y-110313880D01*
X135281059Y-110662269D01*
X135635342Y-111091967D01*
X136079046Y-111619430D01*
X136493356Y-112106923D01*
X137365062Y-113129567D01*
X133899239Y-113129567D01*
X133151778Y-112240848D01*
X132840895Y-111860152D01*
X132539446Y-111471572D01*
X132280902Y-111119446D01*
X132098737Y-110848110D01*
X132092100Y-110837237D01*
X131987933Y-110663659D01*
X131897126Y-110501277D01*
X131818768Y-110337711D01*
X131751949Y-110160580D01*
X131695758Y-109957502D01*
X131649284Y-109716097D01*
X131611615Y-109423984D01*
X131581843Y-109068781D01*
X131559054Y-108638108D01*
X131542340Y-108119584D01*
X131530789Y-107500827D01*
X131523490Y-106769457D01*
X131519532Y-105913094D01*
X131518005Y-104919354D01*
X131517998Y-103775859D01*
X131518333Y-103037520D01*
X131519083Y-101823578D01*
X131520555Y-100766433D01*
X131523496Y-99853552D01*
X131528654Y-99072397D01*
X131536776Y-98410434D01*
X131548609Y-97855127D01*
X131564901Y-97393942D01*
X131586400Y-97014342D01*
X131613853Y-96703792D01*
X131648008Y-96449757D01*
X131689611Y-96239701D01*
X131739411Y-96061089D01*
X131798155Y-95901386D01*
X131866591Y-95748055D01*
X131945465Y-95588563D01*
X131964790Y-95550422D01*
X132120170Y-95283883D01*
X132345169Y-94946457D01*
X132600103Y-94596587D01*
X132697848Y-94470922D01*
X133210688Y-93825567D01*
X134818336Y-93825567D01*
X135319106Y-93827698D01*
G36*
X124221954Y-98671502D02*
G01*
X124928190Y-98683058D01*
X125487122Y-98696349D01*
X125920777Y-98712883D01*
X126251184Y-98734170D01*
X126500370Y-98761719D01*
X126690366Y-98797039D01*
X126843198Y-98841640D01*
X126875120Y-98853260D01*
X127368860Y-99119159D01*
X127818987Y-99511474D01*
X128179549Y-99987306D01*
X128272063Y-100157411D01*
X128509650Y-100641234D01*
X128533425Y-106885400D01*
X128557200Y-113129567D01*
X125927317Y-113129567D01*
X125927317Y-107452696D01*
X125927217Y-106291858D01*
X125926359Y-105288605D01*
X125923909Y-104431186D01*
X125919032Y-103707852D01*
X125910892Y-103106853D01*
X125898655Y-102616441D01*
X125881486Y-102224866D01*
X125858549Y-101920378D01*
X125829010Y-101691228D01*
X125792034Y-101525667D01*
X125746785Y-101411944D01*
X125692429Y-101338312D01*
X125628130Y-101293019D01*
X125553055Y-101264318D01*
X125486208Y-101245818D01*
X125327261Y-101225730D01*
X125040580Y-101210067D01*
X124667739Y-101200458D01*
X124276317Y-101198400D01*
X123260317Y-101202922D01*
X122350150Y-102292098D01*
X121439984Y-103381274D01*
X121439984Y-113129567D01*
X118815317Y-113129567D01*
X118815317Y-102389897D01*
X121966257Y-98639435D01*
X124221954Y-98671502D01*
G37*
X124221954Y-98671502D02*
X124928190Y-98683058D01*
X125487122Y-98696349D01*
X125920777Y-98712883D01*
X126251184Y-98734170D01*
X126500370Y-98761719D01*
X126690366Y-98797039D01*
X126843198Y-98841640D01*
X126875120Y-98853260D01*
X127368860Y-99119159D01*
X127818987Y-99511474D01*
X128179549Y-99987306D01*
X128272063Y-100157411D01*
X128509650Y-100641234D01*
X128533425Y-106885400D01*
X128557200Y-113129567D01*
X125927317Y-113129567D01*
X125927317Y-107452696D01*
X125927217Y-106291858D01*
X125926359Y-105288605D01*
X125923909Y-104431186D01*
X125919032Y-103707852D01*
X125910892Y-103106853D01*
X125898655Y-102616441D01*
X125881486Y-102224866D01*
X125858549Y-101920378D01*
X125829010Y-101691228D01*
X125792034Y-101525667D01*
X125746785Y-101411944D01*
X125692429Y-101338312D01*
X125628130Y-101293019D01*
X125553055Y-101264318D01*
X125486208Y-101245818D01*
X125327261Y-101225730D01*
X125040580Y-101210067D01*
X124667739Y-101200458D01*
X124276317Y-101198400D01*
X123260317Y-101202922D01*
X122350150Y-102292098D01*
X121439984Y-103381274D01*
X121439984Y-113129567D01*
X118815317Y-113129567D01*
X118815317Y-102389897D01*
X121966257Y-98639435D01*
X124221954Y-98671502D01*
G36*
X115513317Y-113129567D02*
G01*
X112719317Y-113129567D01*
X112719317Y-93825567D01*
X115513317Y-93825567D01*
X115513317Y-113129567D01*
G37*
X115513317Y-113129567D02*
X112719317Y-113129567D01*
X112719317Y-93825567D01*
X115513317Y-93825567D01*
X115513317Y-113129567D01*
D11*
%TO.C,U1*%
X205585650Y-97799900D02*
X204725650Y-97799900D01*
X188085650Y-97799900D02*
X188935650Y-97799900D01*
X205585650Y-96949900D02*
X205585650Y-97799900D01*
X188085650Y-96899900D02*
X188085650Y-97799900D01*
X205585650Y-67599900D02*
X204785650Y-67599900D01*
X188085650Y-67599900D02*
X188935650Y-67599900D01*
X205585650Y-67599900D02*
X205585650Y-68449900D01*
X188085650Y-67599900D02*
X188085650Y-68449900D01*
X193085650Y-61999900D02*
X193085650Y-63299900D01*
X193085650Y-63299900D02*
X200585650Y-63299900D01*
X200585650Y-63299900D02*
X200585650Y-61999900D01*
X200585650Y-61999900D02*
X193085650Y-61999900D01*
X196335650Y-62349900D02*
X197335650Y-62349900D01*
X197335650Y-62349900D02*
X196835650Y-62999900D01*
X196835650Y-62999900D02*
X196335650Y-62349900D01*
X196485650Y-62499900D02*
X197185650Y-62499900D01*
X196585650Y-62649900D02*
X197085650Y-62649900D01*
X196685650Y-62799900D02*
X196985650Y-62799900D01*
%TO.C,RSW1*%
X193835650Y-103999900D02*
X199835650Y-103999900D01*
X199835650Y-103999900D02*
X199835650Y-103749900D01*
X193835650Y-103999900D02*
X193835650Y-103749900D01*
X193835650Y-100499900D02*
X193835650Y-100749900D01*
X193835650Y-100499900D02*
X199835650Y-100499900D01*
X199835650Y-100499900D02*
X199835650Y-100749900D01*
%TO.C,U1*%
D12*
X191378030Y-69039185D02*
X191154697Y-68682042D01*
X190995173Y-69039185D02*
X190995173Y-68289185D01*
X191250411Y-68289185D01*
X191314221Y-68324900D01*
X191346126Y-68360614D01*
X191378030Y-68432042D01*
X191378030Y-68539185D01*
X191346126Y-68610614D01*
X191314221Y-68646328D01*
X191250411Y-68682042D01*
X190995173Y-68682042D01*
X191633269Y-68824900D02*
X191952316Y-68824900D01*
X191569459Y-69039185D02*
X191792792Y-68289185D01*
X192016126Y-69039185D01*
X192175650Y-68289185D02*
X192335173Y-69039185D01*
X192462792Y-68503471D01*
X192590411Y-69039185D01*
X192749935Y-68289185D01*
X191330173Y-70874900D02*
X191266364Y-70839185D01*
X191170650Y-70839185D01*
X191074935Y-70874900D01*
X191011126Y-70946328D01*
X190979221Y-71017757D01*
X190947316Y-71160614D01*
X190947316Y-71267757D01*
X190979221Y-71410614D01*
X191011126Y-71482042D01*
X191074935Y-71553471D01*
X191170650Y-71589185D01*
X191234459Y-71589185D01*
X191330173Y-71553471D01*
X191362078Y-71517757D01*
X191362078Y-71267757D01*
X191234459Y-71267757D01*
X191649221Y-71589185D02*
X191649221Y-70839185D01*
X192032078Y-71589185D01*
X192032078Y-70839185D01*
X192351126Y-71589185D02*
X192351126Y-70839185D01*
X192510650Y-70839185D01*
X192606364Y-70874900D01*
X192670173Y-70946328D01*
X192702078Y-71017757D01*
X192733983Y-71160614D01*
X192733983Y-71267757D01*
X192702078Y-71410614D01*
X192670173Y-71482042D01*
X192606364Y-71553471D01*
X192510650Y-71589185D01*
X192351126Y-71589185D01*
X191473745Y-74139185D02*
X191250411Y-73782042D01*
X191090888Y-74139185D02*
X191090888Y-73389185D01*
X191346126Y-73389185D01*
X191409935Y-73424900D01*
X191441840Y-73460614D01*
X191473745Y-73532042D01*
X191473745Y-73639185D01*
X191441840Y-73710614D01*
X191409935Y-73746328D01*
X191346126Y-73782042D01*
X191090888Y-73782042D01*
X191728983Y-74103471D02*
X191824697Y-74139185D01*
X191984221Y-74139185D01*
X192048030Y-74103471D01*
X192079935Y-74067757D01*
X192111840Y-73996328D01*
X192111840Y-73924900D01*
X192079935Y-73853471D01*
X192048030Y-73817757D01*
X191984221Y-73782042D01*
X191856602Y-73746328D01*
X191792792Y-73710614D01*
X191760888Y-73674900D01*
X191728983Y-73603471D01*
X191728983Y-73532042D01*
X191760888Y-73460614D01*
X191792792Y-73424900D01*
X191856602Y-73389185D01*
X192016126Y-73389185D01*
X192111840Y-73424900D01*
X192303269Y-73389185D02*
X192686126Y-73389185D01*
X192494697Y-74139185D02*
X192494697Y-73389185D01*
X190947316Y-75839185D02*
X191170650Y-76589185D01*
X191393983Y-75839185D01*
X192000173Y-76517757D02*
X191968269Y-76553471D01*
X191872554Y-76589185D01*
X191808745Y-76589185D01*
X191713030Y-76553471D01*
X191649221Y-76482042D01*
X191617316Y-76410614D01*
X191585411Y-76267757D01*
X191585411Y-76160614D01*
X191617316Y-76017757D01*
X191649221Y-75946328D01*
X191713030Y-75874900D01*
X191808745Y-75839185D01*
X191872554Y-75839185D01*
X191968269Y-75874900D01*
X192000173Y-75910614D01*
X192670173Y-76517757D02*
X192638269Y-76553471D01*
X192542554Y-76589185D01*
X192478745Y-76589185D01*
X192383030Y-76553471D01*
X192319221Y-76482042D01*
X192287316Y-76410614D01*
X192255411Y-76267757D01*
X192255411Y-76160614D01*
X192287316Y-76017757D01*
X192319221Y-75946328D01*
X192383030Y-75874900D01*
X192478745Y-75839185D01*
X192542554Y-75839185D01*
X192638269Y-75874900D01*
X192670173Y-75910614D01*
X191004935Y-79074900D02*
X191323983Y-79074900D01*
X190941126Y-79289185D02*
X191164459Y-78539185D01*
X191387792Y-79289185D01*
X191547316Y-78539185D02*
X191962078Y-78539185D01*
X191738745Y-78824900D01*
X191834459Y-78824900D01*
X191898269Y-78860614D01*
X191930173Y-78896328D01*
X191962078Y-78967757D01*
X191962078Y-79146328D01*
X191930173Y-79217757D01*
X191898269Y-79253471D01*
X191834459Y-79289185D01*
X191643030Y-79289185D01*
X191579221Y-79253471D01*
X191547316Y-79217757D01*
X192727792Y-78503471D02*
X192153507Y-79467757D01*
X193174459Y-78896328D02*
X192951126Y-78896328D01*
X192951126Y-79289185D02*
X192951126Y-78539185D01*
X193270173Y-78539185D01*
X193812554Y-78789185D02*
X193812554Y-79289185D01*
X193653030Y-78503471D02*
X193493507Y-79039185D01*
X193908269Y-79039185D01*
X191004935Y-81574900D02*
X191323983Y-81574900D01*
X190941126Y-81789185D02*
X191164459Y-81039185D01*
X191387792Y-81789185D01*
X191579221Y-81110614D02*
X191611126Y-81074900D01*
X191674935Y-81039185D01*
X191834459Y-81039185D01*
X191898269Y-81074900D01*
X191930173Y-81110614D01*
X191962078Y-81182042D01*
X191962078Y-81253471D01*
X191930173Y-81360614D01*
X191547316Y-81789185D01*
X191962078Y-81789185D01*
X192727792Y-81003471D02*
X192153507Y-81967757D01*
X193174459Y-81396328D02*
X192951126Y-81396328D01*
X192951126Y-81789185D02*
X192951126Y-81039185D01*
X193270173Y-81039185D01*
X193844459Y-81039185D02*
X193525411Y-81039185D01*
X193493507Y-81396328D01*
X193525411Y-81360614D01*
X193589221Y-81324900D01*
X193748745Y-81324900D01*
X193812554Y-81360614D01*
X193844459Y-81396328D01*
X193876364Y-81467757D01*
X193876364Y-81646328D01*
X193844459Y-81717757D01*
X193812554Y-81753471D01*
X193748745Y-81789185D01*
X193589221Y-81789185D01*
X193525411Y-81753471D01*
X193493507Y-81717757D01*
X191004935Y-84074900D02*
X191323983Y-84074900D01*
X190941126Y-84289185D02*
X191164459Y-83539185D01*
X191387792Y-84289185D01*
X191962078Y-84289185D02*
X191579221Y-84289185D01*
X191770650Y-84289185D02*
X191770650Y-83539185D01*
X191706840Y-83646328D01*
X191643030Y-83717757D01*
X191579221Y-83753471D01*
X192727792Y-83503471D02*
X192153507Y-84467757D01*
X193174459Y-83896328D02*
X192951126Y-83896328D01*
X192951126Y-84289185D02*
X192951126Y-83539185D01*
X193270173Y-83539185D01*
X193812554Y-83539185D02*
X193684935Y-83539185D01*
X193621126Y-83574900D01*
X193589221Y-83610614D01*
X193525411Y-83717757D01*
X193493507Y-83860614D01*
X193493507Y-84146328D01*
X193525411Y-84217757D01*
X193557316Y-84253471D01*
X193621126Y-84289185D01*
X193748745Y-84289185D01*
X193812554Y-84253471D01*
X193844459Y-84217757D01*
X193876364Y-84146328D01*
X193876364Y-83967757D01*
X193844459Y-83896328D01*
X193812554Y-83860614D01*
X193748745Y-83824900D01*
X193621126Y-83824900D01*
X193557316Y-83860614D01*
X193525411Y-83896328D01*
X193493507Y-83967757D01*
X191004935Y-86624900D02*
X191323983Y-86624900D01*
X190941126Y-86839185D02*
X191164459Y-86089185D01*
X191387792Y-86839185D01*
X191738745Y-86089185D02*
X191802554Y-86089185D01*
X191866364Y-86124900D01*
X191898269Y-86160614D01*
X191930173Y-86232042D01*
X191962078Y-86374900D01*
X191962078Y-86553471D01*
X191930173Y-86696328D01*
X191898269Y-86767757D01*
X191866364Y-86803471D01*
X191802554Y-86839185D01*
X191738745Y-86839185D01*
X191674935Y-86803471D01*
X191643030Y-86767757D01*
X191611126Y-86696328D01*
X191579221Y-86553471D01*
X191579221Y-86374900D01*
X191611126Y-86232042D01*
X191643030Y-86160614D01*
X191674935Y-86124900D01*
X191738745Y-86089185D01*
X192727792Y-86053471D02*
X192153507Y-87017757D01*
X193174459Y-86446328D02*
X192951126Y-86446328D01*
X192951126Y-86839185D02*
X192951126Y-86089185D01*
X193270173Y-86089185D01*
X193461602Y-86089185D02*
X193908269Y-86089185D01*
X193621126Y-86839185D01*
X191308030Y-89389185D02*
X190925173Y-89389185D01*
X191116602Y-89389185D02*
X191116602Y-88639185D01*
X191052792Y-88746328D01*
X190988983Y-88817757D01*
X190925173Y-88853471D01*
X191914221Y-88639185D02*
X191595173Y-88639185D01*
X191563269Y-88996328D01*
X191595173Y-88960614D01*
X191658983Y-88924900D01*
X191818507Y-88924900D01*
X191882316Y-88960614D01*
X191914221Y-88996328D01*
X191946126Y-89067757D01*
X191946126Y-89246328D01*
X191914221Y-89317757D01*
X191882316Y-89353471D01*
X191818507Y-89389185D01*
X191658983Y-89389185D01*
X191595173Y-89353471D01*
X191563269Y-89317757D01*
X192711840Y-88603471D02*
X192137554Y-89567757D01*
X193158507Y-88996328D02*
X193254221Y-89032042D01*
X193286126Y-89067757D01*
X193318030Y-89139185D01*
X193318030Y-89246328D01*
X193286126Y-89317757D01*
X193254221Y-89353471D01*
X193190411Y-89389185D01*
X192935173Y-89389185D01*
X192935173Y-88639185D01*
X193158507Y-88639185D01*
X193222316Y-88674900D01*
X193254221Y-88710614D01*
X193286126Y-88782042D01*
X193286126Y-88853471D01*
X193254221Y-88924900D01*
X193222316Y-88960614D01*
X193158507Y-88996328D01*
X192935173Y-88996328D01*
X193956126Y-89389185D02*
X193573269Y-89389185D01*
X193764697Y-89389185D02*
X193764697Y-88639185D01*
X193700888Y-88746328D01*
X193637078Y-88817757D01*
X193573269Y-88853471D01*
X191308030Y-91939185D02*
X190925173Y-91939185D01*
X191116602Y-91939185D02*
X191116602Y-91189185D01*
X191052792Y-91296328D01*
X190988983Y-91367757D01*
X190925173Y-91403471D01*
X191882316Y-91439185D02*
X191882316Y-91939185D01*
X191722792Y-91153471D02*
X191563269Y-91689185D01*
X191978030Y-91689185D01*
X192711840Y-91153471D02*
X192137554Y-92117757D01*
X193158507Y-91546328D02*
X193254221Y-91582042D01*
X193286126Y-91617757D01*
X193318030Y-91689185D01*
X193318030Y-91796328D01*
X193286126Y-91867757D01*
X193254221Y-91903471D01*
X193190411Y-91939185D01*
X192935173Y-91939185D01*
X192935173Y-91189185D01*
X193158507Y-91189185D01*
X193222316Y-91224900D01*
X193254221Y-91260614D01*
X193286126Y-91332042D01*
X193286126Y-91403471D01*
X193254221Y-91474900D01*
X193222316Y-91510614D01*
X193158507Y-91546328D01*
X192935173Y-91546328D01*
X193541364Y-91189185D02*
X193956126Y-91189185D01*
X193732792Y-91474900D01*
X193828507Y-91474900D01*
X193892316Y-91510614D01*
X193924221Y-91546328D01*
X193956126Y-91617757D01*
X193956126Y-91796328D01*
X193924221Y-91867757D01*
X193892316Y-91903471D01*
X193828507Y-91939185D01*
X193637078Y-91939185D01*
X193573269Y-91903471D01*
X193541364Y-91867757D01*
X191308030Y-96989185D02*
X190925173Y-96989185D01*
X191116602Y-96989185D02*
X191116602Y-96239185D01*
X191052792Y-96346328D01*
X190988983Y-96417757D01*
X190925173Y-96453471D01*
X191722792Y-96239185D02*
X191786602Y-96239185D01*
X191850411Y-96274900D01*
X191882316Y-96310614D01*
X191914221Y-96382042D01*
X191946126Y-96524900D01*
X191946126Y-96703471D01*
X191914221Y-96846328D01*
X191882316Y-96917757D01*
X191850411Y-96953471D01*
X191786602Y-96989185D01*
X191722792Y-96989185D01*
X191658983Y-96953471D01*
X191627078Y-96917757D01*
X191595173Y-96846328D01*
X191563269Y-96703471D01*
X191563269Y-96524900D01*
X191595173Y-96382042D01*
X191627078Y-96310614D01*
X191658983Y-96274900D01*
X191722792Y-96239185D01*
X192711840Y-96203471D02*
X192137554Y-97167757D01*
X193158507Y-96596328D02*
X193254221Y-96632042D01*
X193286126Y-96667757D01*
X193318030Y-96739185D01*
X193318030Y-96846328D01*
X193286126Y-96917757D01*
X193254221Y-96953471D01*
X193190411Y-96989185D01*
X192935173Y-96989185D01*
X192935173Y-96239185D01*
X193158507Y-96239185D01*
X193222316Y-96274900D01*
X193254221Y-96310614D01*
X193286126Y-96382042D01*
X193286126Y-96453471D01*
X193254221Y-96524900D01*
X193222316Y-96560614D01*
X193158507Y-96596328D01*
X192935173Y-96596328D01*
X193892316Y-96239185D02*
X193764697Y-96239185D01*
X193700888Y-96274900D01*
X193668983Y-96310614D01*
X193605173Y-96417757D01*
X193573269Y-96560614D01*
X193573269Y-96846328D01*
X193605173Y-96917757D01*
X193637078Y-96953471D01*
X193700888Y-96989185D01*
X193828507Y-96989185D01*
X193892316Y-96953471D01*
X193924221Y-96917757D01*
X193956126Y-96846328D01*
X193956126Y-96667757D01*
X193924221Y-96596328D01*
X193892316Y-96560614D01*
X193828507Y-96524900D01*
X193700888Y-96524900D01*
X193637078Y-96560614D01*
X193605173Y-96596328D01*
X193573269Y-96667757D01*
X191308030Y-94489185D02*
X190925173Y-94489185D01*
X191116602Y-94489185D02*
X191116602Y-93739185D01*
X191052792Y-93846328D01*
X190988983Y-93917757D01*
X190925173Y-93953471D01*
X191882316Y-93739185D02*
X191754697Y-93739185D01*
X191690888Y-93774900D01*
X191658983Y-93810614D01*
X191595173Y-93917757D01*
X191563269Y-94060614D01*
X191563269Y-94346328D01*
X191595173Y-94417757D01*
X191627078Y-94453471D01*
X191690888Y-94489185D01*
X191818507Y-94489185D01*
X191882316Y-94453471D01*
X191914221Y-94417757D01*
X191946126Y-94346328D01*
X191946126Y-94167757D01*
X191914221Y-94096328D01*
X191882316Y-94060614D01*
X191818507Y-94024900D01*
X191690888Y-94024900D01*
X191627078Y-94060614D01*
X191595173Y-94096328D01*
X191563269Y-94167757D01*
X192711840Y-93703471D02*
X192137554Y-94667757D01*
X193158507Y-94096328D02*
X193254221Y-94132042D01*
X193286126Y-94167757D01*
X193318030Y-94239185D01*
X193318030Y-94346328D01*
X193286126Y-94417757D01*
X193254221Y-94453471D01*
X193190411Y-94489185D01*
X192935173Y-94489185D01*
X192935173Y-93739185D01*
X193158507Y-93739185D01*
X193222316Y-93774900D01*
X193254221Y-93810614D01*
X193286126Y-93882042D01*
X193286126Y-93953471D01*
X193254221Y-94024900D01*
X193222316Y-94060614D01*
X193158507Y-94096328D01*
X192935173Y-94096328D01*
X193573269Y-93810614D02*
X193605173Y-93774900D01*
X193668983Y-93739185D01*
X193828507Y-93739185D01*
X193892316Y-93774900D01*
X193924221Y-93810614D01*
X193956126Y-93882042D01*
X193956126Y-93953471D01*
X193924221Y-94060614D01*
X193541364Y-94489185D01*
X193956126Y-94489185D01*
X200408030Y-91396328D02*
X200631364Y-91396328D01*
X200727078Y-91789185D02*
X200408030Y-91789185D01*
X200408030Y-91039185D01*
X200727078Y-91039185D01*
X201301364Y-91039185D02*
X201173745Y-91039185D01*
X201109935Y-91074900D01*
X201078030Y-91110614D01*
X201014221Y-91217757D01*
X200982316Y-91360614D01*
X200982316Y-91646328D01*
X201014221Y-91717757D01*
X201046126Y-91753471D01*
X201109935Y-91789185D01*
X201237554Y-91789185D01*
X201301364Y-91753471D01*
X201333269Y-91717757D01*
X201365173Y-91646328D01*
X201365173Y-91467757D01*
X201333269Y-91396328D01*
X201301364Y-91360614D01*
X201237554Y-91324900D01*
X201109935Y-91324900D01*
X201046126Y-91360614D01*
X201014221Y-91396328D01*
X200982316Y-91467757D01*
X202130888Y-91003471D02*
X201556602Y-91967757D01*
X202290411Y-91039185D02*
X202737078Y-91039185D01*
X202449935Y-91789185D01*
X200376126Y-89239185D02*
X200376126Y-88489185D01*
X200535650Y-88489185D01*
X200631364Y-88524900D01*
X200695173Y-88596328D01*
X200727078Y-88667757D01*
X200758983Y-88810614D01*
X200758983Y-88917757D01*
X200727078Y-89060614D01*
X200695173Y-89132042D01*
X200631364Y-89203471D01*
X200535650Y-89239185D01*
X200376126Y-89239185D01*
X200982316Y-88489185D02*
X201428983Y-88489185D01*
X201141840Y-89239185D01*
X202162792Y-88453471D02*
X201588507Y-89417757D01*
X202673269Y-88489185D02*
X202545650Y-88489185D01*
X202481840Y-88524900D01*
X202449935Y-88560614D01*
X202386126Y-88667757D01*
X202354221Y-88810614D01*
X202354221Y-89096328D01*
X202386126Y-89167757D01*
X202418030Y-89203471D01*
X202481840Y-89239185D01*
X202609459Y-89239185D01*
X202673269Y-89203471D01*
X202705173Y-89167757D01*
X202737078Y-89096328D01*
X202737078Y-88917757D01*
X202705173Y-88846328D01*
X202673269Y-88810614D01*
X202609459Y-88774900D01*
X202481840Y-88774900D01*
X202418030Y-88810614D01*
X202386126Y-88846328D01*
X202354221Y-88917757D01*
X201280173Y-73474900D02*
X201216364Y-73439185D01*
X201120650Y-73439185D01*
X201024935Y-73474900D01*
X200961126Y-73546328D01*
X200929221Y-73617757D01*
X200897316Y-73760614D01*
X200897316Y-73867757D01*
X200929221Y-74010614D01*
X200961126Y-74082042D01*
X201024935Y-74153471D01*
X201120650Y-74189185D01*
X201184459Y-74189185D01*
X201280173Y-74153471D01*
X201312078Y-74117757D01*
X201312078Y-73867757D01*
X201184459Y-73867757D01*
X201599221Y-74189185D02*
X201599221Y-73439185D01*
X201982078Y-74189185D01*
X201982078Y-73439185D01*
X202301126Y-74189185D02*
X202301126Y-73439185D01*
X202460650Y-73439185D01*
X202556364Y-73474900D01*
X202620173Y-73546328D01*
X202652078Y-73617757D01*
X202683983Y-73760614D01*
X202683983Y-73867757D01*
X202652078Y-74010614D01*
X202620173Y-74082042D01*
X202556364Y-74153471D01*
X202460650Y-74189185D01*
X202301126Y-74189185D01*
X201280173Y-75924900D02*
X201216364Y-75889185D01*
X201120650Y-75889185D01*
X201024935Y-75924900D01*
X200961126Y-75996328D01*
X200929221Y-76067757D01*
X200897316Y-76210614D01*
X200897316Y-76317757D01*
X200929221Y-76460614D01*
X200961126Y-76532042D01*
X201024935Y-76603471D01*
X201120650Y-76639185D01*
X201184459Y-76639185D01*
X201280173Y-76603471D01*
X201312078Y-76567757D01*
X201312078Y-76317757D01*
X201184459Y-76317757D01*
X201599221Y-76639185D02*
X201599221Y-75889185D01*
X201982078Y-76639185D01*
X201982078Y-75889185D01*
X202301126Y-76639185D02*
X202301126Y-75889185D01*
X202460650Y-75889185D01*
X202556364Y-75924900D01*
X202620173Y-75996328D01*
X202652078Y-76067757D01*
X202683983Y-76210614D01*
X202683983Y-76317757D01*
X202652078Y-76460614D01*
X202620173Y-76532042D01*
X202556364Y-76603471D01*
X202460650Y-76639185D01*
X202301126Y-76639185D01*
X199251840Y-69089185D02*
X199251840Y-68339185D01*
X199411364Y-68339185D01*
X199507078Y-68374900D01*
X199570888Y-68446328D01*
X199602792Y-68517757D01*
X199634697Y-68660614D01*
X199634697Y-68767757D01*
X199602792Y-68910614D01*
X199570888Y-68982042D01*
X199507078Y-69053471D01*
X199411364Y-69089185D01*
X199251840Y-69089185D01*
X199858030Y-68339185D02*
X200272792Y-68339185D01*
X200049459Y-68624900D01*
X200145173Y-68624900D01*
X200208983Y-68660614D01*
X200240888Y-68696328D01*
X200272792Y-68767757D01*
X200272792Y-68946328D01*
X200240888Y-69017757D01*
X200208983Y-69053471D01*
X200145173Y-69089185D01*
X199953745Y-69089185D01*
X199889935Y-69053471D01*
X199858030Y-69017757D01*
X201038507Y-68303471D02*
X200464221Y-69267757D01*
X201166126Y-68339185D02*
X201548983Y-68339185D01*
X201357554Y-69089185D02*
X201357554Y-68339185D01*
X201708507Y-68339185D02*
X202155173Y-69089185D01*
X202155173Y-68339185D02*
X201708507Y-69089185D01*
X202538030Y-68339185D02*
X202601840Y-68339185D01*
X202665650Y-68374900D01*
X202697554Y-68410614D01*
X202729459Y-68482042D01*
X202761364Y-68624900D01*
X202761364Y-68803471D01*
X202729459Y-68946328D01*
X202697554Y-69017757D01*
X202665650Y-69053471D01*
X202601840Y-69089185D01*
X202538030Y-69089185D01*
X202474221Y-69053471D01*
X202442316Y-69017757D01*
X202410411Y-68946328D01*
X202378507Y-68803471D01*
X202378507Y-68624900D01*
X202410411Y-68482042D01*
X202442316Y-68410614D01*
X202474221Y-68374900D01*
X202538030Y-68339185D01*
X200376126Y-84139185D02*
X200376126Y-83389185D01*
X200535650Y-83389185D01*
X200631364Y-83424900D01*
X200695173Y-83496328D01*
X200727078Y-83567757D01*
X200758983Y-83710614D01*
X200758983Y-83817757D01*
X200727078Y-83960614D01*
X200695173Y-84032042D01*
X200631364Y-84103471D01*
X200535650Y-84139185D01*
X200376126Y-84139185D01*
X201333269Y-83639185D02*
X201333269Y-84139185D01*
X201173745Y-83353471D02*
X201014221Y-83889185D01*
X201428983Y-83889185D01*
X202162792Y-83353471D02*
X201588507Y-84317757D01*
X202673269Y-83639185D02*
X202673269Y-84139185D01*
X202513745Y-83353471D02*
X202354221Y-83889185D01*
X202768983Y-83889185D01*
X197802078Y-79103471D02*
X197897792Y-79139185D01*
X198057316Y-79139185D01*
X198121126Y-79103471D01*
X198153030Y-79067757D01*
X198184935Y-78996328D01*
X198184935Y-78924900D01*
X198153030Y-78853471D01*
X198121126Y-78817757D01*
X198057316Y-78782042D01*
X197929697Y-78746328D01*
X197865888Y-78710614D01*
X197833983Y-78674900D01*
X197802078Y-78603471D01*
X197802078Y-78532042D01*
X197833983Y-78460614D01*
X197865888Y-78424900D01*
X197929697Y-78389185D01*
X198089221Y-78389185D01*
X198184935Y-78424900D01*
X198472078Y-79139185D02*
X198472078Y-78389185D01*
X198631602Y-78389185D01*
X198727316Y-78424900D01*
X198791126Y-78496328D01*
X198823030Y-78567757D01*
X198854935Y-78710614D01*
X198854935Y-78817757D01*
X198823030Y-78960614D01*
X198791126Y-79032042D01*
X198727316Y-79103471D01*
X198631602Y-79139185D01*
X198472078Y-79139185D01*
X199110173Y-78924900D02*
X199429221Y-78924900D01*
X199046364Y-79139185D02*
X199269697Y-78389185D01*
X199493030Y-79139185D01*
X200194935Y-78353471D02*
X199620650Y-79317757D01*
X200418269Y-79139185D02*
X200418269Y-78389185D01*
X200577792Y-78389185D01*
X200673507Y-78424900D01*
X200737316Y-78496328D01*
X200769221Y-78567757D01*
X200801126Y-78710614D01*
X200801126Y-78817757D01*
X200769221Y-78960614D01*
X200737316Y-79032042D01*
X200673507Y-79103471D01*
X200577792Y-79139185D01*
X200418269Y-79139185D01*
X201439221Y-79139185D02*
X201056364Y-79139185D01*
X201247792Y-79139185D02*
X201247792Y-78389185D01*
X201183983Y-78496328D01*
X201120173Y-78567757D01*
X201056364Y-78603471D01*
X202204935Y-78353471D02*
X201630650Y-79317757D01*
X202396364Y-78460614D02*
X202428269Y-78424900D01*
X202492078Y-78389185D01*
X202651602Y-78389185D01*
X202715411Y-78424900D01*
X202747316Y-78460614D01*
X202779221Y-78532042D01*
X202779221Y-78603471D01*
X202747316Y-78710614D01*
X202364459Y-79139185D01*
X202779221Y-79139185D01*
X197818030Y-81603471D02*
X197913745Y-81639185D01*
X198073269Y-81639185D01*
X198137078Y-81603471D01*
X198168983Y-81567757D01*
X198200888Y-81496328D01*
X198200888Y-81424900D01*
X198168983Y-81353471D01*
X198137078Y-81317757D01*
X198073269Y-81282042D01*
X197945650Y-81246328D01*
X197881840Y-81210614D01*
X197849935Y-81174900D01*
X197818030Y-81103471D01*
X197818030Y-81032042D01*
X197849935Y-80960614D01*
X197881840Y-80924900D01*
X197945650Y-80889185D01*
X198105173Y-80889185D01*
X198200888Y-80924900D01*
X198870888Y-81567757D02*
X198838983Y-81603471D01*
X198743269Y-81639185D01*
X198679459Y-81639185D01*
X198583745Y-81603471D01*
X198519935Y-81532042D01*
X198488030Y-81460614D01*
X198456126Y-81317757D01*
X198456126Y-81210614D01*
X198488030Y-81067757D01*
X198519935Y-80996328D01*
X198583745Y-80924900D01*
X198679459Y-80889185D01*
X198743269Y-80889185D01*
X198838983Y-80924900D01*
X198870888Y-80960614D01*
X199477078Y-81639185D02*
X199158030Y-81639185D01*
X199158030Y-80889185D01*
X200178983Y-80853471D02*
X199604697Y-81817757D01*
X200402316Y-81639185D02*
X200402316Y-80889185D01*
X200561840Y-80889185D01*
X200657554Y-80924900D01*
X200721364Y-80996328D01*
X200753269Y-81067757D01*
X200785173Y-81210614D01*
X200785173Y-81317757D01*
X200753269Y-81460614D01*
X200721364Y-81532042D01*
X200657554Y-81603471D01*
X200561840Y-81639185D01*
X200402316Y-81639185D01*
X201199935Y-80889185D02*
X201263745Y-80889185D01*
X201327554Y-80924900D01*
X201359459Y-80960614D01*
X201391364Y-81032042D01*
X201423269Y-81174900D01*
X201423269Y-81353471D01*
X201391364Y-81496328D01*
X201359459Y-81567757D01*
X201327554Y-81603471D01*
X201263745Y-81639185D01*
X201199935Y-81639185D01*
X201136126Y-81603471D01*
X201104221Y-81567757D01*
X201072316Y-81496328D01*
X201040411Y-81353471D01*
X201040411Y-81174900D01*
X201072316Y-81032042D01*
X201104221Y-80960614D01*
X201136126Y-80924900D01*
X201199935Y-80889185D01*
X202188983Y-80853471D02*
X201614697Y-81817757D01*
X202348507Y-80889185D02*
X202763269Y-80889185D01*
X202539935Y-81174900D01*
X202635650Y-81174900D01*
X202699459Y-81210614D01*
X202731364Y-81246328D01*
X202763269Y-81317757D01*
X202763269Y-81496328D01*
X202731364Y-81567757D01*
X202699459Y-81603471D01*
X202635650Y-81639185D01*
X202444221Y-81639185D01*
X202380411Y-81603471D01*
X202348507Y-81567757D01*
X200758983Y-86617757D02*
X200727078Y-86653471D01*
X200631364Y-86689185D01*
X200567554Y-86689185D01*
X200471840Y-86653471D01*
X200408030Y-86582042D01*
X200376126Y-86510614D01*
X200344221Y-86367757D01*
X200344221Y-86260614D01*
X200376126Y-86117757D01*
X200408030Y-86046328D01*
X200471840Y-85974900D01*
X200567554Y-85939185D01*
X200631364Y-85939185D01*
X200727078Y-85974900D01*
X200758983Y-86010614D01*
X201333269Y-85939185D02*
X201205650Y-85939185D01*
X201141840Y-85974900D01*
X201109935Y-86010614D01*
X201046126Y-86117757D01*
X201014221Y-86260614D01*
X201014221Y-86546328D01*
X201046126Y-86617757D01*
X201078030Y-86653471D01*
X201141840Y-86689185D01*
X201269459Y-86689185D01*
X201333269Y-86653471D01*
X201365173Y-86617757D01*
X201397078Y-86546328D01*
X201397078Y-86367757D01*
X201365173Y-86296328D01*
X201333269Y-86260614D01*
X201269459Y-86224900D01*
X201141840Y-86224900D01*
X201078030Y-86260614D01*
X201046126Y-86296328D01*
X201014221Y-86367757D01*
X202162792Y-85903471D02*
X201588507Y-86867757D01*
X202705173Y-85939185D02*
X202386126Y-85939185D01*
X202354221Y-86296328D01*
X202386126Y-86260614D01*
X202449935Y-86224900D01*
X202609459Y-86224900D01*
X202673269Y-86260614D01*
X202705173Y-86296328D01*
X202737078Y-86367757D01*
X202737078Y-86546328D01*
X202705173Y-86617757D01*
X202673269Y-86653471D01*
X202609459Y-86689185D01*
X202449935Y-86689185D01*
X202386126Y-86653471D01*
X202354221Y-86617757D01*
X200599459Y-96446328D02*
X200695173Y-96482042D01*
X200727078Y-96517757D01*
X200758983Y-96589185D01*
X200758983Y-96696328D01*
X200727078Y-96767757D01*
X200695173Y-96803471D01*
X200631364Y-96839185D01*
X200376126Y-96839185D01*
X200376126Y-96089185D01*
X200599459Y-96089185D01*
X200663269Y-96124900D01*
X200695173Y-96160614D01*
X200727078Y-96232042D01*
X200727078Y-96303471D01*
X200695173Y-96374900D01*
X200663269Y-96410614D01*
X200599459Y-96446328D01*
X200376126Y-96446328D01*
X201365173Y-96089185D02*
X201046126Y-96089185D01*
X201014221Y-96446328D01*
X201046126Y-96410614D01*
X201109935Y-96374900D01*
X201269459Y-96374900D01*
X201333269Y-96410614D01*
X201365173Y-96446328D01*
X201397078Y-96517757D01*
X201397078Y-96696328D01*
X201365173Y-96767757D01*
X201333269Y-96803471D01*
X201269459Y-96839185D01*
X201109935Y-96839185D01*
X201046126Y-96803471D01*
X201014221Y-96767757D01*
X202162792Y-96053471D02*
X201588507Y-97017757D01*
X202418030Y-96839185D02*
X202545650Y-96839185D01*
X202609459Y-96803471D01*
X202641364Y-96767757D01*
X202705173Y-96660614D01*
X202737078Y-96517757D01*
X202737078Y-96232042D01*
X202705173Y-96160614D01*
X202673269Y-96124900D01*
X202609459Y-96089185D01*
X202481840Y-96089185D01*
X202418030Y-96124900D01*
X202386126Y-96160614D01*
X202354221Y-96232042D01*
X202354221Y-96410614D01*
X202386126Y-96482042D01*
X202418030Y-96517757D01*
X202481840Y-96553471D01*
X202609459Y-96553471D01*
X202673269Y-96517757D01*
X202705173Y-96482042D01*
X202737078Y-96410614D01*
X199172078Y-71639185D02*
X199172078Y-70889185D01*
X199331602Y-70889185D01*
X199427316Y-70924900D01*
X199491126Y-70996328D01*
X199523030Y-71067757D01*
X199554935Y-71210614D01*
X199554935Y-71317757D01*
X199523030Y-71460614D01*
X199491126Y-71532042D01*
X199427316Y-71603471D01*
X199331602Y-71639185D01*
X199172078Y-71639185D01*
X199810173Y-70960614D02*
X199842078Y-70924900D01*
X199905888Y-70889185D01*
X200065411Y-70889185D01*
X200129221Y-70924900D01*
X200161126Y-70960614D01*
X200193030Y-71032042D01*
X200193030Y-71103471D01*
X200161126Y-71210614D01*
X199778269Y-71639185D01*
X200193030Y-71639185D01*
X200958745Y-70853471D02*
X200384459Y-71817757D01*
X201564935Y-71639185D02*
X201341602Y-71282042D01*
X201182078Y-71639185D02*
X201182078Y-70889185D01*
X201437316Y-70889185D01*
X201501126Y-70924900D01*
X201533030Y-70960614D01*
X201564935Y-71032042D01*
X201564935Y-71139185D01*
X201533030Y-71210614D01*
X201501126Y-71246328D01*
X201437316Y-71282042D01*
X201182078Y-71282042D01*
X201788269Y-70889185D02*
X202234935Y-71639185D01*
X202234935Y-70889185D02*
X201788269Y-71639185D01*
X202841126Y-71639185D02*
X202458269Y-71639185D01*
X202649697Y-71639185D02*
X202649697Y-70889185D01*
X202585888Y-70996328D01*
X202522078Y-71067757D01*
X202458269Y-71103471D01*
X200599459Y-93946328D02*
X200695173Y-93982042D01*
X200727078Y-94017757D01*
X200758983Y-94089185D01*
X200758983Y-94196328D01*
X200727078Y-94267757D01*
X200695173Y-94303471D01*
X200631364Y-94339185D01*
X200376126Y-94339185D01*
X200376126Y-93589185D01*
X200599459Y-93589185D01*
X200663269Y-93624900D01*
X200695173Y-93660614D01*
X200727078Y-93732042D01*
X200727078Y-93803471D01*
X200695173Y-93874900D01*
X200663269Y-93910614D01*
X200599459Y-93946328D01*
X200376126Y-93946328D01*
X201333269Y-93839185D02*
X201333269Y-94339185D01*
X201173745Y-93553471D02*
X201014221Y-94089185D01*
X201428983Y-94089185D01*
X202162792Y-93553471D02*
X201588507Y-94517757D01*
X202481840Y-93910614D02*
X202418030Y-93874900D01*
X202386126Y-93839185D01*
X202354221Y-93767757D01*
X202354221Y-93732042D01*
X202386126Y-93660614D01*
X202418030Y-93624900D01*
X202481840Y-93589185D01*
X202609459Y-93589185D01*
X202673269Y-93624900D01*
X202705173Y-93660614D01*
X202737078Y-93732042D01*
X202737078Y-93767757D01*
X202705173Y-93839185D01*
X202673269Y-93874900D01*
X202609459Y-93910614D01*
X202481840Y-93910614D01*
X202418030Y-93946328D01*
X202386126Y-93982042D01*
X202354221Y-94053471D01*
X202354221Y-94196328D01*
X202386126Y-94267757D01*
X202418030Y-94303471D01*
X202481840Y-94339185D01*
X202609459Y-94339185D01*
X202673269Y-94303471D01*
X202705173Y-94267757D01*
X202737078Y-94196328D01*
X202737078Y-94053471D01*
X202705173Y-93982042D01*
X202673269Y-93946328D01*
X202609459Y-93910614D01*
D13*
X194339221Y-64589185D02*
X194339221Y-63839185D01*
X194589221Y-64374900D01*
X194839221Y-63839185D01*
X194839221Y-64589185D01*
X195196364Y-64589185D02*
X195196364Y-64089185D01*
X195196364Y-63839185D02*
X195160650Y-63874900D01*
X195196364Y-63910614D01*
X195232078Y-63874900D01*
X195196364Y-63839185D01*
X195196364Y-63910614D01*
X195874935Y-64553471D02*
X195803507Y-64589185D01*
X195660650Y-64589185D01*
X195589221Y-64553471D01*
X195553507Y-64517757D01*
X195517792Y-64446328D01*
X195517792Y-64232042D01*
X195553507Y-64160614D01*
X195589221Y-64124900D01*
X195660650Y-64089185D01*
X195803507Y-64089185D01*
X195874935Y-64124900D01*
X196196364Y-64589185D02*
X196196364Y-64089185D01*
X196196364Y-64232042D02*
X196232078Y-64160614D01*
X196267792Y-64124900D01*
X196339221Y-64089185D01*
X196410650Y-64089185D01*
X196767792Y-64589185D02*
X196696364Y-64553471D01*
X196660650Y-64517757D01*
X196624935Y-64446328D01*
X196624935Y-64232042D01*
X196660650Y-64160614D01*
X196696364Y-64124900D01*
X196767792Y-64089185D01*
X196874935Y-64089185D01*
X196946364Y-64124900D01*
X196982078Y-64160614D01*
X197017792Y-64232042D01*
X197017792Y-64446328D01*
X196982078Y-64517757D01*
X196946364Y-64553471D01*
X196874935Y-64589185D01*
X196767792Y-64589185D01*
X197339221Y-63839185D02*
X197339221Y-64446328D01*
X197374935Y-64517757D01*
X197410650Y-64553471D01*
X197482078Y-64589185D01*
X197624935Y-64589185D01*
X197696364Y-64553471D01*
X197732078Y-64517757D01*
X197767792Y-64446328D01*
X197767792Y-63839185D01*
X198089221Y-64553471D02*
X198196364Y-64589185D01*
X198374935Y-64589185D01*
X198446364Y-64553471D01*
X198482078Y-64517757D01*
X198517792Y-64446328D01*
X198517792Y-64374900D01*
X198482078Y-64303471D01*
X198446364Y-64267757D01*
X198374935Y-64232042D01*
X198232078Y-64196328D01*
X198160650Y-64160614D01*
X198124935Y-64124900D01*
X198089221Y-64053471D01*
X198089221Y-63982042D01*
X198124935Y-63910614D01*
X198160650Y-63874900D01*
X198232078Y-63839185D01*
X198410650Y-63839185D01*
X198517792Y-63874900D01*
X199089221Y-64196328D02*
X199196364Y-64232042D01*
X199232078Y-64267757D01*
X199267792Y-64339185D01*
X199267792Y-64446328D01*
X199232078Y-64517757D01*
X199196364Y-64553471D01*
X199124935Y-64589185D01*
X198839221Y-64589185D01*
X198839221Y-63839185D01*
X199089221Y-63839185D01*
X199160650Y-63874900D01*
X199196364Y-63910614D01*
X199232078Y-63982042D01*
X199232078Y-64053471D01*
X199196364Y-64124900D01*
X199160650Y-64160614D01*
X199089221Y-64196328D01*
X198839221Y-64196328D01*
X194339221Y-64589185D02*
X194339221Y-63839185D01*
X194589221Y-64374900D01*
X194839221Y-63839185D01*
X194839221Y-64589185D01*
X195196364Y-64589185D02*
X195196364Y-64089185D01*
X195196364Y-63839185D02*
X195160650Y-63874900D01*
X195196364Y-63910614D01*
X195232078Y-63874900D01*
X195196364Y-63839185D01*
X195196364Y-63910614D01*
X195874935Y-64553471D02*
X195803507Y-64589185D01*
X195660650Y-64589185D01*
X195589221Y-64553471D01*
X195553507Y-64517757D01*
X195517792Y-64446328D01*
X195517792Y-64232042D01*
X195553507Y-64160614D01*
X195589221Y-64124900D01*
X195660650Y-64089185D01*
X195803507Y-64089185D01*
X195874935Y-64124900D01*
X196196364Y-64589185D02*
X196196364Y-64089185D01*
X196196364Y-64232042D02*
X196232078Y-64160614D01*
X196267792Y-64124900D01*
X196339221Y-64089185D01*
X196410650Y-64089185D01*
X196767792Y-64589185D02*
X196696364Y-64553471D01*
X196660650Y-64517757D01*
X196624935Y-64446328D01*
X196624935Y-64232042D01*
X196660650Y-64160614D01*
X196696364Y-64124900D01*
X196767792Y-64089185D01*
X196874935Y-64089185D01*
X196946364Y-64124900D01*
X196982078Y-64160614D01*
X197017792Y-64232042D01*
X197017792Y-64446328D01*
X196982078Y-64517757D01*
X196946364Y-64553471D01*
X196874935Y-64589185D01*
X196767792Y-64589185D01*
X197339221Y-63839185D02*
X197339221Y-64446328D01*
X197374935Y-64517757D01*
X197410650Y-64553471D01*
X197482078Y-64589185D01*
X197624935Y-64589185D01*
X197696364Y-64553471D01*
X197732078Y-64517757D01*
X197767792Y-64446328D01*
X197767792Y-63839185D01*
X198089221Y-64553471D02*
X198196364Y-64589185D01*
X198374935Y-64589185D01*
X198446364Y-64553471D01*
X198482078Y-64517757D01*
X198517792Y-64446328D01*
X198517792Y-64374900D01*
X198482078Y-64303471D01*
X198446364Y-64267757D01*
X198374935Y-64232042D01*
X198232078Y-64196328D01*
X198160650Y-64160614D01*
X198124935Y-64124900D01*
X198089221Y-64053471D01*
X198089221Y-63982042D01*
X198124935Y-63910614D01*
X198160650Y-63874900D01*
X198232078Y-63839185D01*
X198410650Y-63839185D01*
X198517792Y-63874900D01*
X199089221Y-64196328D02*
X199196364Y-64232042D01*
X199232078Y-64267757D01*
X199267792Y-64339185D01*
X199267792Y-64446328D01*
X199232078Y-64517757D01*
X199196364Y-64553471D01*
X199124935Y-64589185D01*
X198839221Y-64589185D01*
X198839221Y-63839185D01*
X199089221Y-63839185D01*
X199160650Y-63874900D01*
X199196364Y-63910614D01*
X199232078Y-63982042D01*
X199232078Y-64053471D01*
X199196364Y-64124900D01*
X199160650Y-64160614D01*
X199089221Y-64196328D01*
X198839221Y-64196328D01*
%TO.C,RSW1*%
D11*
X195383269Y-102702280D02*
X195049935Y-102226090D01*
X194811840Y-102702280D02*
X194811840Y-101702280D01*
X195192792Y-101702280D01*
X195288030Y-101749900D01*
X195335650Y-101797519D01*
X195383269Y-101892757D01*
X195383269Y-102035614D01*
X195335650Y-102130852D01*
X195288030Y-102178471D01*
X195192792Y-102226090D01*
X194811840Y-102226090D01*
X195811840Y-102178471D02*
X196145173Y-102178471D01*
X196288030Y-102702280D02*
X195811840Y-102702280D01*
X195811840Y-101702280D01*
X196288030Y-101702280D01*
X196668983Y-102654661D02*
X196811840Y-102702280D01*
X197049935Y-102702280D01*
X197145173Y-102654661D01*
X197192792Y-102607042D01*
X197240411Y-102511804D01*
X197240411Y-102416566D01*
X197192792Y-102321328D01*
X197145173Y-102273709D01*
X197049935Y-102226090D01*
X196859459Y-102178471D01*
X196764221Y-102130852D01*
X196716602Y-102083233D01*
X196668983Y-101987995D01*
X196668983Y-101892757D01*
X196716602Y-101797519D01*
X196764221Y-101749900D01*
X196859459Y-101702280D01*
X197097554Y-101702280D01*
X197240411Y-101749900D01*
X197668983Y-102178471D02*
X198002316Y-102178471D01*
X198145173Y-102702280D02*
X197668983Y-102702280D01*
X197668983Y-101702280D01*
X198145173Y-101702280D01*
X198430888Y-101702280D02*
X199002316Y-101702280D01*
X198716602Y-102702280D02*
X198716602Y-101702280D01*
%TD*%
M02*
