%TF.GenerationSoftware,KiCad,Pcbnew,(5.1.10)-1*%
%TF.CreationDate,2021-05-18T00:23:08+09:00*%
%TF.ProjectId,intro21,696e7472-6f32-4312-9e6b-696361645f70,rev?*%
%TF.SameCoordinates,Original*%
%TF.FileFunction,Soldermask,Top*%
%TF.FilePolarity,Negative*%
%FSLAX46Y46*%
G04 Gerber Fmt 4.6, Leading zero omitted, Abs format (unit mm)*
G04 Created by KiCad (PCBNEW (5.1.10)-1) date 2021-05-18 00:23:08*
%MOMM*%
%LPD*%
G01*
G04 APERTURE LIST*
%ADD10C,4.300000*%
%ADD11C,1.397000*%
%ADD12R,1.397000X1.397000*%
%ADD13C,1.750000*%
%ADD14C,3.000000*%
%ADD15C,3.987800*%
%ADD16C,3.048000*%
%ADD17C,2.000000*%
G04 APERTURE END LIST*
D10*
%TO.C,Ref\u002A\u002A*%
X92060300Y-66054300D03*
%TD*%
%TO.C,Ref\u002A\u002A*%
X92060300Y-142254300D03*
%TD*%
%TO.C,Ref\u002A\u002A*%
X206360300Y-142254300D03*
%TD*%
%TO.C,Ref\u002A\u002A*%
X206360650Y-66054900D03*
%TD*%
D11*
%TO.C,D21*%
X191120650Y-140349900D03*
D12*
X183500650Y-140349900D03*
%TD*%
D11*
%TO.C,D20*%
X162545650Y-140349900D03*
D12*
X154925650Y-140349900D03*
%TD*%
D11*
%TO.C,D19*%
X143495650Y-140349900D03*
D12*
X135875650Y-140349900D03*
%TD*%
D11*
%TO.C,D18*%
X124445650Y-140349900D03*
D12*
X116825650Y-140349900D03*
%TD*%
D11*
%TO.C,D17*%
X105395650Y-140349900D03*
D12*
X97775650Y-140349900D03*
%TD*%
D11*
%TO.C,D16*%
X200645650Y-121299900D03*
D12*
X193025650Y-121299900D03*
%TD*%
D11*
%TO.C,D15*%
X181595650Y-121299900D03*
D12*
X173975650Y-121299900D03*
%TD*%
D11*
%TO.C,D14*%
X162545650Y-121299900D03*
D12*
X154925650Y-121299900D03*
%TD*%
D11*
%TO.C,D13*%
X143495650Y-121299900D03*
D12*
X135875650Y-121299900D03*
%TD*%
D11*
%TO.C,D12*%
X124445650Y-121299900D03*
D12*
X116825650Y-121299900D03*
%TD*%
D11*
%TO.C,D11*%
X105395650Y-121299900D03*
D12*
X97775650Y-121299900D03*
%TD*%
D11*
%TO.C,D10*%
X181595650Y-102249900D03*
D12*
X173975650Y-102249900D03*
%TD*%
D11*
%TO.C,D9*%
X162545650Y-102249900D03*
D12*
X154925650Y-102249900D03*
%TD*%
D11*
%TO.C,D8*%
X143495650Y-102249900D03*
D12*
X135875650Y-102249900D03*
%TD*%
D11*
%TO.C,D7*%
X124445650Y-102249900D03*
D12*
X116825650Y-102249900D03*
%TD*%
D11*
%TO.C,D6*%
X105395650Y-102249900D03*
D12*
X97775650Y-102249900D03*
%TD*%
D11*
%TO.C,D5*%
X181595650Y-83199900D03*
D12*
X173975650Y-83199900D03*
%TD*%
D11*
%TO.C,D4*%
X162545650Y-83199900D03*
D12*
X154925650Y-83199900D03*
%TD*%
D11*
%TO.C,D3*%
X143495650Y-83199900D03*
D12*
X135875650Y-83199900D03*
%TD*%
D11*
%TO.C,D2*%
X124445650Y-83199900D03*
D12*
X116825650Y-83199900D03*
%TD*%
D11*
%TO.C,D1*%
X105395650Y-83199900D03*
D12*
X97775650Y-83199900D03*
%TD*%
D13*
%TO.C,SW1*%
X106665650Y-75579900D03*
X96505650Y-75579900D03*
D14*
X97775650Y-73039900D03*
D15*
X101585650Y-75579900D03*
D14*
X104125650Y-70499900D03*
%TD*%
D13*
%TO.C,SW20*%
X163815650Y-132729900D03*
X153655650Y-132729900D03*
D14*
X154925650Y-130189900D03*
D15*
X158735650Y-132729900D03*
D14*
X161275650Y-127649900D03*
%TD*%
D13*
%TO.C,SW19*%
X144765650Y-132729900D03*
X134605650Y-132729900D03*
D14*
X135875650Y-130189900D03*
D15*
X139685650Y-132729900D03*
D14*
X142225650Y-127649900D03*
%TD*%
D13*
%TO.C,SW18*%
X125715650Y-132729900D03*
X115555650Y-132729900D03*
D14*
X116825650Y-130189900D03*
D15*
X120635650Y-132729900D03*
D14*
X123175650Y-127649900D03*
%TD*%
D13*
%TO.C,SW17*%
X106665650Y-132729900D03*
X96505650Y-132729900D03*
D14*
X97775650Y-130189900D03*
D15*
X101585650Y-132729900D03*
D14*
X104125650Y-127649900D03*
%TD*%
D13*
%TO.C,SW16*%
X201915650Y-113679900D03*
X191755650Y-113679900D03*
D14*
X193025650Y-111139900D03*
D15*
X196835650Y-113679900D03*
D14*
X199375650Y-108599900D03*
%TD*%
D13*
%TO.C,SW15*%
X182865650Y-113679900D03*
X172705650Y-113679900D03*
D14*
X173975650Y-111139900D03*
D15*
X177785650Y-113679900D03*
D14*
X180325650Y-108599900D03*
%TD*%
D13*
%TO.C,SW14*%
X163815650Y-113679900D03*
X153655650Y-113679900D03*
D14*
X154925650Y-111139900D03*
D15*
X158735650Y-113679900D03*
D14*
X161275650Y-108599900D03*
%TD*%
D13*
%TO.C,SW13*%
X144765650Y-113679900D03*
X134605650Y-113679900D03*
D14*
X135875650Y-111139900D03*
D15*
X139685650Y-113679900D03*
D14*
X142225650Y-108599900D03*
%TD*%
D13*
%TO.C,SW12*%
X125715650Y-113679900D03*
X115555650Y-113679900D03*
D14*
X116825650Y-111139900D03*
D15*
X120635650Y-113679900D03*
D14*
X123175650Y-108599900D03*
%TD*%
D13*
%TO.C,SW11*%
X106665650Y-113679900D03*
X96505650Y-113679900D03*
D14*
X97775650Y-111139900D03*
D15*
X101585650Y-113679900D03*
D14*
X104125650Y-108599900D03*
%TD*%
D13*
%TO.C,SW10*%
X182865650Y-94629900D03*
X172705650Y-94629900D03*
D14*
X173975650Y-92089900D03*
D15*
X177785650Y-94629900D03*
D14*
X180325650Y-89549900D03*
%TD*%
D13*
%TO.C,SW9*%
X163815650Y-94629900D03*
X153655650Y-94629900D03*
D14*
X154925650Y-92089900D03*
D15*
X158735650Y-94629900D03*
D14*
X161275650Y-89549900D03*
%TD*%
D13*
%TO.C,SW8*%
X144765650Y-94629900D03*
X134605650Y-94629900D03*
D14*
X135875650Y-92089900D03*
D15*
X139685650Y-94629900D03*
D14*
X142225650Y-89549900D03*
%TD*%
D13*
%TO.C,SW7*%
X125715650Y-94629900D03*
X115555650Y-94629900D03*
D14*
X116825650Y-92089900D03*
D15*
X120635650Y-94629900D03*
D14*
X123175650Y-89549900D03*
%TD*%
D13*
%TO.C,SW6*%
X106665650Y-94629900D03*
X96505650Y-94629900D03*
D14*
X97775650Y-92089900D03*
D15*
X101585650Y-94629900D03*
D14*
X104125650Y-89549900D03*
%TD*%
D13*
%TO.C,SW5*%
X182865650Y-75579900D03*
X172705650Y-75579900D03*
D14*
X173975650Y-73039900D03*
D15*
X177785650Y-75579900D03*
D14*
X180325650Y-70499900D03*
%TD*%
D13*
%TO.C,SW4*%
X163815650Y-75579900D03*
X153655650Y-75579900D03*
D14*
X154925650Y-73039900D03*
D15*
X158735650Y-75579900D03*
D14*
X161275650Y-70499900D03*
%TD*%
D13*
%TO.C,SW3*%
X144765650Y-75579900D03*
X134605650Y-75579900D03*
D14*
X135875650Y-73039900D03*
D15*
X139685650Y-75579900D03*
D14*
X142225650Y-70499900D03*
%TD*%
D13*
%TO.C,SW2*%
X125715650Y-75579900D03*
X115555650Y-75579900D03*
D14*
X116825650Y-73039900D03*
D15*
X120635650Y-75579900D03*
D14*
X123175650Y-70499900D03*
%TD*%
D15*
%TO.C,SW21*%
X175372650Y-140984900D03*
X199248650Y-140984900D03*
D16*
X175372650Y-125744900D03*
X199248650Y-125744900D03*
D13*
X192390650Y-132729900D03*
X182230650Y-132729900D03*
D14*
X183500650Y-130189900D03*
D15*
X187310650Y-132729900D03*
D14*
X189850650Y-127649900D03*
%TD*%
D17*
%TO.C,RSW1*%
X193585650Y-102249900D03*
X200085650Y-102249900D03*
%TD*%
M02*
