M48
; DRILL file {KiCad (5.1.10)-1} date 05/18/21 00:23:10
; FORMAT={-:-/ absolute / metric / decimal}
; #@! TF.CreationDate,2021-05-18T00:23:10+09:00
; #@! TF.GenerationSoftware,Kicad,Pcbnew,(5.1.10)-1
FMAT,2
METRIC
T1C0.400
T2C0.813
T3C1.300
T4C1.750
T5C3.000
T6C3.048
T7C3.988
T8C4.300
%
G90
G05
T1
X198.741Y-81.295
X198.741Y-90.82
T2
X97.776Y-83.2
X97.776Y-102.25
X97.776Y-121.3
X97.776Y-140.35
X105.396Y-83.2
X105.396Y-102.25
X105.396Y-121.3
X105.396Y-140.35
X116.826Y-83.2
X116.826Y-102.25
X116.826Y-121.3
X116.826Y-140.35
X124.446Y-83.2
X124.446Y-102.25
X124.446Y-121.3
X124.446Y-140.35
X135.876Y-83.2
X135.876Y-102.25
X135.876Y-121.3
X135.876Y-140.35
X143.496Y-83.2
X143.496Y-102.25
X143.496Y-121.3
X143.496Y-140.35
X154.926Y-83.2
X154.926Y-102.25
X154.926Y-121.3
X154.926Y-140.35
X162.546Y-83.2
X162.546Y-102.25
X162.546Y-121.3
X162.546Y-140.35
X173.976Y-83.2
X173.976Y-102.25
X173.976Y-121.3
X181.596Y-83.2
X181.596Y-102.25
X181.596Y-121.3
X183.501Y-140.35
X189.227Y-68.722
X189.227Y-71.262
X189.227Y-73.802
X189.227Y-76.342
X189.227Y-78.882
X189.227Y-81.422
X189.227Y-83.962
X189.227Y-86.502
X189.227Y-89.042
X189.227Y-91.582
X189.227Y-94.122
X189.227Y-96.662
X191.121Y-140.35
X193.026Y-121.3
X200.646Y-121.3
X204.447Y-68.722
X204.447Y-71.262
X204.447Y-73.802
X204.447Y-76.342
X204.447Y-78.882
X204.447Y-81.422
X204.447Y-83.962
X204.447Y-86.502
X204.447Y-89.042
X204.447Y-91.582
X204.447Y-94.122
X204.447Y-96.662
T3
X193.586Y-102.25
X200.086Y-102.25
T4
X96.506Y-75.58
X96.506Y-94.63
X96.506Y-113.68
X96.506Y-132.73
X106.666Y-75.58
X106.666Y-94.63
X106.666Y-113.68
X106.666Y-132.73
X115.556Y-75.58
X115.556Y-94.63
X115.556Y-113.68
X115.556Y-132.73
X125.716Y-75.58
X125.716Y-94.63
X125.716Y-113.68
X125.716Y-132.73
X134.606Y-75.58
X134.606Y-94.63
X134.606Y-113.68
X134.606Y-132.73
X144.766Y-75.58
X144.766Y-94.63
X144.766Y-113.68
X144.766Y-132.73
X153.656Y-75.58
X153.656Y-94.63
X153.656Y-113.68
X153.656Y-132.73
X163.816Y-75.58
X163.816Y-94.63
X163.816Y-113.68
X163.816Y-132.73
X172.706Y-75.58
X172.706Y-94.63
X172.706Y-113.68
X182.231Y-132.73
X182.866Y-75.58
X182.866Y-94.63
X182.866Y-113.68
X191.756Y-113.68
X192.391Y-132.73
X201.916Y-113.68
T5
X97.776Y-73.04
X97.776Y-92.09
X97.776Y-111.14
X97.776Y-130.19
X104.126Y-70.5
X104.126Y-89.55
X104.126Y-108.6
X104.126Y-127.65
X116.826Y-73.04
X116.826Y-92.09
X116.826Y-111.14
X116.826Y-130.19
X123.176Y-70.5
X123.176Y-89.55
X123.176Y-108.6
X123.176Y-127.65
X135.876Y-73.04
X135.876Y-92.09
X135.876Y-111.14
X135.876Y-130.19
X142.226Y-70.5
X142.226Y-89.55
X142.226Y-108.6
X142.226Y-127.65
X154.926Y-73.04
X154.926Y-92.09
X154.926Y-111.14
X154.926Y-130.19
X161.276Y-70.5
X161.276Y-89.55
X161.276Y-108.6
X161.276Y-127.65
X173.976Y-73.04
X173.976Y-92.09
X173.976Y-111.14
X180.326Y-70.5
X180.326Y-89.55
X180.326Y-108.6
X183.501Y-130.19
X189.851Y-127.65
X193.026Y-111.14
X199.376Y-108.6
T6
X175.373Y-125.745
X199.249Y-125.745
T7
X101.586Y-75.58
X101.586Y-94.63
X101.586Y-113.68
X101.586Y-132.73
X120.636Y-75.58
X120.636Y-94.63
X120.636Y-113.68
X120.636Y-132.73
X139.686Y-75.58
X139.686Y-94.63
X139.686Y-113.68
X139.686Y-132.73
X158.736Y-75.58
X158.736Y-94.63
X158.736Y-113.68
X158.736Y-132.73
X175.373Y-140.985
X177.786Y-75.58
X177.786Y-94.63
X177.786Y-113.68
X187.311Y-132.73
X196.836Y-113.68
X199.249Y-140.985
T8
X92.06Y-66.054
X92.06Y-142.254
X206.36Y-142.254
X206.361Y-66.055
T0
M30
